<?xml version="1.0" encoding="utf-8"?>
<!-- Generator: Adobe Illustrator 27.6.1, SVG Export Plug-In . SVG Version: 6.00 Build 0)  -->
<svg version="1.1" id="_Слой_1" xmlns="http://www.w3.org/2000/svg" xmlns:xlink="http://www.w3.org/1999/xlink" x="0px"
	 y="0px" viewBox="0 0 512 512" style="enable-background:new 0 0 512 512;" xml:space="preserve">
<path d="M256,0C114.6,0,0,114.6,0,256s114.6,256,256,256s256-114.6,256-256S397.4,0,256,0z M417.2,417.2c-21,21-45.3,37.4-72.5,48.9
	C316.7,478,286.8,484,256,484s-60.6-6-88.7-17.9c-27.1-11.5-51.5-27.9-72.5-48.9c-21-21-37.4-45.3-48.9-72.5
	C34,316.6,28,286.8,28,256s6-60.7,17.9-88.7c11.5-27.2,27.9-51.5,48.9-72.5c20.9-21,45.3-37.4,72.5-48.9C195.4,34,225.2,28,256,28
	c30.8,0,60.7,6,88.7,17.9c27.2,11.5,51.5,27.9,72.5,48.9c21,21,37.4,45.3,48.9,72.5c11.9,28.1,17.9,58,17.9,88.7s-6,60.6-17.9,88.7
	C454.6,371.9,438.2,396.3,417.2,417.2z M351.9,248.1c5.5,5.5,5.5,14.3,0,19.8l-86,86c-0.3,0.3-0.7,0.6-1,0.9
	c-0.2,0.1-0.3,0.2-0.5,0.3c-0.2,0.2-0.4,0.3-0.6,0.5c-0.2,0.1-0.4,0.2-0.6,0.4c-0.2,0.1-0.4,0.2-0.6,0.3c-0.2,0.1-0.4,0.2-0.6,0.3
	c-0.2,0.1-0.4,0.2-0.6,0.3c-0.2,0.1-0.4,0.2-0.6,0.2c-0.2,0.1-0.4,0.2-0.7,0.2c-0.2,0.1-0.4,0.1-0.6,0.2c-0.2,0.1-0.5,0.1-0.7,0.2
	c-0.2,0-0.5,0.1-0.7,0.1c-0.2,0-0.4,0.1-0.6,0.1c-0.5,0-0.9,0.1-1.4,0.1s-0.9,0-1.4-0.1c-0.2,0-0.4-0.1-0.6-0.1
	c-0.2,0-0.5-0.1-0.7-0.1c-0.2,0-0.5-0.1-0.7-0.2c-0.2-0.1-0.4-0.1-0.6-0.2c-0.2-0.1-0.4-0.2-0.7-0.2c-0.2-0.1-0.4-0.1-0.6-0.2
	c-0.2-0.1-0.4-0.2-0.6-0.3c-0.2-0.1-0.4-0.2-0.6-0.3c-0.2-0.1-0.4-0.2-0.6-0.3c-0.2-0.1-0.4-0.2-0.6-0.4c-0.2-0.1-0.4-0.3-0.6-0.5
	c-0.2-0.1-0.3-0.2-0.5-0.4c-0.4-0.3-0.7-0.6-1-0.9l-86-86c-5.5-5.5-5.5-14.3,0-19.8c5.5-5.5,14.3-5.5,19.8,0l62.1,62.1V168
	c0-7.7,6.3-14,14-14c7.7,0,14,6.3,14,14v142.2l62.1-62.1C337.6,242.6,346.4,242.6,351.9,248.1z"/>
</svg>
