<?xml version="1.0" encoding="UTF-8"?>
<svg id="_Слой_1" data-name="Слой 1" xmlns="http://www.w3.org/2000/svg" viewBox="0 0 512 512">
  <path d="m342,277c-3.58,0-7.17-1.37-9.9-4.1l-76.1-76.1-76.1,76.1c-5.47,5.47-14.33,5.47-19.8,0-5.47-5.47-5.47-14.33,0-19.8l86-86c5.47-5.47,14.33-5.47,19.8,0l86,86c5.47,5.47,5.47,14.33,0,19.8-2.73,2.73-6.32,4.1-9.9,4.1Zm9.9,67.9c5.47-5.47,5.47-14.33,0-19.8l-86-86c-5.47-5.47-14.33-5.47-19.8,0l-86,86c-5.47,5.47-5.47,14.33,0,19.8,5.47,5.47,14.33,5.47,19.8,0l76.1-76.1,76.1,76.1c2.73,2.73,6.32,4.1,9.9,4.1s7.17-1.37,9.9-4.1Z"/>
</svg>