<?xml version="1.0" encoding="utf-8"?>
<!-- Generator: Adobe Illustrator 27.6.1, SVG Export Plug-In . SVG Version: 6.00 Build 0)  -->
<svg version="1.1" id="_Слой_1" xmlns="http://www.w3.org/2000/svg" xmlns:xlink="http://www.w3.org/1999/xlink" x="0px"
	 y="0px" viewBox="0 0 512 512" style="enable-background:new 0 0 512 512;" xml:space="preserve">
<path d="M353.9,265.9l-86,86c-2.7,2.7-6.3,4.1-9.9,4.1s-7.2-1.4-9.9-4.1c-5.5-5.5-5.5-14.3,0-19.8l62.1-62.1H168
	c-7.7,0-14-6.3-14-14c0-7.7,6.3-14,14-14h142.2l-62.1-62.1c-5.5-5.5-5.5-14.3,0-19.8c5.5-5.5,14.3-5.5,19.8,0l86,86
	c0.3,0.3,0.6,0.7,0.9,1c0.1,0.2,0.2,0.3,0.4,0.5c0.2,0.2,0.3,0.4,0.5,0.6c0.1,0.2,0.2,0.4,0.4,0.6c0.1,0.2,0.2,0.4,0.3,0.6
	c0.1,0.2,0.2,0.4,0.3,0.6c0.1,0.2,0.2,0.4,0.3,0.6c0.1,0.2,0.2,0.4,0.2,0.6c0.1,0.2,0.2,0.4,0.2,0.7c0.1,0.2,0.1,0.4,0.2,0.7
	c0.1,0.2,0.1,0.4,0.2,0.7c0.1,0.3,0.1,0.5,0.1,0.8c0,0.2,0.1,0.4,0.1,0.6c0.1,0.9,0.1,1.8,0,2.8c0,0.2-0.1,0.4-0.1,0.6
	c0,0.3-0.1,0.5-0.1,0.8c0,0.2-0.1,0.4-0.2,0.7c-0.1,0.2-0.1,0.4-0.2,0.7c-0.1,0.2-0.2,0.4-0.2,0.7c-0.1,0.2-0.1,0.4-0.2,0.6
	c-0.1,0.2-0.2,0.4-0.3,0.6c-0.1,0.2-0.2,0.4-0.3,0.6c-0.1,0.2-0.2,0.4-0.3,0.6c-0.1,0.2-0.2,0.4-0.4,0.6c-0.1,0.2-0.3,0.4-0.5,0.6
	c-0.1,0.2-0.2,0.3-0.4,0.5C354.5,265.2,354.2,265.6,353.9,265.9z"/>
</svg>
