<?xml version="1.0" encoding="utf-8"?>
<!-- Generator: Adobe Illustrator 27.6.1, SVG Export Plug-In . SVG Version: 6.00 Build 0)  -->
<svg version="1.1" id="Слой_1" xmlns="http://www.w3.org/2000/svg" xmlns:xlink="http://www.w3.org/1999/xlink" x="0px" y="0px"
	 viewBox="0 0 512 512" style="enable-background:new 0 0 512 512;" xml:space="preserve">
<path d="M470,76H190.7c-19.6,0-38.4,8.3-51.6,22.7L3.7,246.5c-4.9,5.4-4.9,13.6,0,18.9L139,413.3c13.2,14.4,32,22.7,51.6,22.7H470
	c23.2,0,42-18.8,42-42V118C512,94.8,493.2,76,470,76z M484,394c0,7.7-6.3,14-14,14H190.7c-11.8,0-23-5-31-13.6L33,256l126.7-138.4
	c7.9-8.7,19.2-13.6,31-13.6H470c7.7,0,14,6.3,14,14V394z M387.2,220.6L351.8,256l35.4,35.4c5.5,5.5,5.5,14.3,0,19.8
	c-2.7,2.7-6.3,4.1-9.9,4.1s-7.2-1.4-9.9-4.1L332,275.8l-35.4,35.4c-2.7,2.7-6.3,4.1-9.9,4.1s-7.2-1.4-9.9-4.1
	c-5.5-5.5-5.5-14.3,0-19.8l35.4-35.4l-35.4-35.4c-5.5-5.5-5.5-14.3,0-19.8c5.5-5.5,14.3-5.5,19.8,0l35.4,35.4l35.4-35.4
	c5.5-5.5,14.3-5.5,19.8,0C392.6,206.3,392.6,215.2,387.2,220.6z"/>
</svg>
