<?xml version="1.0" encoding="utf-8"?>
<!-- Generator: Adobe Illustrator 27.6.1, SVG Export Plug-In . SVG Version: 6.00 Build 0)  -->
<svg version="1.1" id="Слой_1" xmlns="http://www.w3.org/2000/svg" xmlns:xlink="http://www.w3.org/1999/xlink" x="0px" y="0px"
	 viewBox="0 0 512 512" style="enable-background:new 0 0 512 512;" xml:space="preserve">
<path d="M512,135c0,45-11.9,89.3-34.3,128c-2.6,4.5-7.3,7-12.1,7c-2.4,0-4.8-0.6-7-1.9c-6.7-3.9-9-12.4-5.1-19.1
	c20-34.5,30.5-73.9,30.5-114s-10.5-79.5-30.5-114c-3.9-6.7-1.6-15.3,5.1-19.1c6.7-3.9,15.3-1.6,19.1,5.1C500.1,45.7,512,90,512,135z
	 M53.4,1.9C46.7-2,38.1,0.3,34.3,7C11.9,45.7,0,90,0,135s11.9,89.3,34.3,128c2.6,4.5,7.3,7,12.1,7c2.4,0,4.8-0.6,7-1.9
	c6.7-3.9,9-12.4,5.1-19.1C38.5,214.5,28,175.1,28,135S38.5,55.5,58.5,21C62.4,14.3,60.1,5.8,53.4,1.9z M403.2,33.9
	c-6.7,3.9-9,12.4-5.1,19.1c14.4,24.8,21.9,53.2,21.9,82s-7.6,57.2-21.9,82c-3.9,6.7-1.6,15.3,5.1,19.1c2.2,1.3,4.6,1.9,7,1.9
	c4.8,0,9.5-2.5,12.1-7c16.8-29.1,25.7-62.3,25.7-96s-8.9-67-25.7-96C418.4,32.3,409.9,30,403.2,33.9z M108.8,33.9
	c-6.7-3.9-15.3-1.6-19.1,5.1C72.9,68.1,64,101.3,64,135s8.9,67,25.7,96c2.6,4.5,7.3,7,12.1,7c2.4,0,4.8-0.6,7-1.9
	c6.7-3.9,9-12.4,5.1-19.1C99.6,192.2,92,163.9,92,135s7.6-57.2,21.9-82C117.8,46.3,115.5,37.8,108.8,33.9z M347.7,65.9
	c-6.7,3.9-9,12.4-5.1,19.1c8.8,15.1,13.4,32.4,13.4,50c0,17.6-4.6,34.9-13.4,50c-3.9,6.7-1.6,15.3,5.1,19.1c2.2,1.3,4.6,1.9,7,1.9
	c4.8,0,9.5-2.5,12.1-7c11.2-19.4,17.1-41.5,17.1-64c0-22.5-5.9-44.7-17.1-64C363,64.3,354.4,62,347.7,65.9z M164.3,65.9
	c-6.7-3.9-15.3-1.6-19.1,5.1c-11.2,19.4-17.1,41.5-17.1,64c0,22.5,5.9,44.7,17.1,64c2.6,4.5,7.3,7,12.1,7c2.4,0,4.8-0.6,7-1.9
	c6.7-3.9,9-12.4,5.1-19.1c-8.8-15.1-13.4-32.4-13.4-50c0-17.6,4.6-34.9,13.4-50C173.2,78.3,171,69.8,164.3,65.9z M320,135
	c0,30.5-21.4,56-50,62.4V498c0,7.7-6.3,14-14,14c-7.7,0-14-6.3-14-14V197.5c-28.6-6.4-50-32-50-62.4c0-35.3,28.7-64,64-64
	C291.3,71,320,99.7,320,135z M292,135c0-19.9-16.1-36-36-36s-36,16.1-36,36s16.1,36,36,36S292,154.9,292,135z"/>
</svg>
