<?xml version="1.0" encoding="utf-8"?>
<!-- Generator: Adobe Illustrator 27.6.1, SVG Export Plug-In . SVG Version: 6.00 Build 0)  -->
<svg version="1.1"
	 id="Слой_1" xmlns:dc="http://purl.org/dc/elements/1.1/" xmlns:cc="http://creativecommons.org/ns#" xmlns:rdf="http://www.w3.org/1999/02/22-rdf-syntax-ns#"
	 xmlns="http://www.w3.org/2000/svg" xmlns:xlink="http://www.w3.org/1999/xlink" x="0px" y="0px" viewBox="0 0 512 512"
	 style="enable-background:new 0 0 512 512;" xml:space="preserve">
<path d="M300.9,313.4c-8.6,34.4-66.5,15.8-85.4,11.2l15.2-61C249.5,268.2,309.8,277.5,300.9,313.4z M251.5,180.3l-13.8,55.3
	c15.7,3.8,63.9,19.7,71.7-11.5C317.5,191.4,267.2,184.2,251.5,180.3z M504.3,317.9C470.1,455.1,331.2,538.5,194,504.3
	C56.9,470.1-26.5,331.2,7.7,194.1C41.8,56.9,180.8-26.5,317.9,7.7C455.1,41.9,538.5,180.8,504.3,317.9z M308.7,160.8l11.4-45.5
	l-27.7-6.9l-11.1,44.3c-7.3-1.8-14.8-3.5-22.2-5.2l11.1-44.6L242.5,96l-11.4,45.5c-6-1.4-11.9-2.8-17.7-4.1v-0.1l-38.2-9.6
	l-7.4,29.6c0,0,20.5,4.7,20.1,5c11.2,2.8,13.2,10.3,12.9,16.1L188,230.3c0.8,0.2,1.8,0.5,2.9,0.9c-0.9-0.2-1.9-0.5-3-0.7l-18.2,72.6
	c-1.4,3.5-4.8,8.5-12.7,6.6c0.3,0.4-20.1-5-20.1-5l-13.7,31.8l36.1,9c6.7,1.7,13.3,3.5,19.7,5.1l-11.4,46.1l27.7,6.9l11.3-45.6
	c7.6,2.1,14.9,4,22.1,5.7l-11.3,45.4l27.7,6.9l11.5-46c47.3,9,82.8,5.3,97.8-37.4c12-34.4-0.6-54.3-25.5-67.2
	c18.1-4.3,31.7-16.2,35.3-40.8C369.2,190.9,343.7,172.9,308.7,160.8z"/>
</svg>
