<?xml version="1.0" encoding="utf-8"?>
<!-- Generator: Adobe Illustrator 27.6.1, SVG Export Plug-In . SVG Version: 6.00 Build 0)  -->
<svg version="1.1" id="Layer_1" xmlns="http://www.w3.org/2000/svg" xmlns:xlink="http://www.w3.org/1999/xlink" x="0px" y="0px"
	 viewBox="0 0 512 512" style="enable-background:new 0 0 512 512;" xml:space="preserve">
<path d="M257.5,0H256C114.6,0,0,114.6,0,256s114.6,256,256,256s256-114.6,256-256v-0.8C512,114.6,398.2,0.4,257.5,0z M355.2,343.7
	l-10.1,34.8c-0.9,3.4-4.1,5.7-7.5,5.5H160.3L190,282.7l-33.2,10.1l7.6-23.2l33.2-10.1l41.8-142c1-3.3,4.1-5.7,7.6-5.5h44.9
	c3.2-0.1,5.9,2.4,6,5.6v1.9l-35.3,119.9l33.2-10.1l-7.1,24.2l-33.7,9.6l-21.7,73.1h115.9c3.2-0.2,5.9,2.4,6.1,5.6V343.7z"/>
</svg>
