<?xml version="1.0" encoding="utf-8"?>
<!-- Generator: Adobe Illustrator 27.6.1, SVG Export Plug-In . SVG Version: 6.00 Build 0)  -->
<svg version="1.1" id="Слой_1" xmlns="http://www.w3.org/2000/svg" xmlns:xlink="http://www.w3.org/1999/xlink" x="0px" y="0px"
	 viewBox="0 0 512 512" style="enable-background:new 0 0 512 512;" xml:space="preserve">
<path d="M335.3,259.3c0.1,88.4-73.8,87.3-84,87.3h-39.9v-75h59.8v-31.4h-59.8v-75h38.1C263.6,165.2,335.2,170.9,335.3,259.3z
	 M512,256c0,141.4-114.6,256-256,256S0,397.4,0,256S114.6,0,256,0S512,114.6,512,256z M389,258.2C389,108,259.3,112,239.8,112H157
	v128.2h-34v31.3h34v128.2h96.4C253.4,399.8,389,411.2,389,258.2z"/>
</svg>
