<?xml version="1.0" encoding="utf-8"?>
<!-- Generator: Adobe Illustrator 27.6.1, SVG Export Plug-In . SVG Version: 6.00 Build 0)  -->
<svg version="1.1" id="Calque_1" xmlns="http://www.w3.org/2000/svg" xmlns:xlink="http://www.w3.org/1999/xlink" x="0px" y="0px"
	 viewBox="0 0 512 512" style="enable-background:new 0 0 512 512;" xml:space="preserve">
<path d="M147.8,159.6l100.8,85.5l-14.6,125L147.8,159.6z M315.7,180.3l-155-28.6l95.9,78.5L315.7,180.3z M251.1,370.2l112.1-135.1
	l-98,15.8L251.1,370.2z M278.2,233.3l88.2-16.1l-32.6-30L278.2,233.3z M512,256c0,141.4-114.6,256-256,256S0,397.4,0,256
	S114.6,0,256,0S512,114.6,512,256z M389.2,214.9c-13.5-12.5-32.2-31.5-47.4-45l-0.9-0.7c-1.5-1.2-3.2-2.1-5-2.8
	c-18.2-3.4-69.7-13-117.1-21.8c-48-8.8-91.9-16.8-93.6-16.6c-0.9,0.1-1.8,0.5-2.6,1l-0.9,0.7c-1,1.1-1.8,2.4-2.4,3.8l-0.2,0.6v3.6
	c19.2,53.6,95.1,228.9,110.1,270c0.9,2.8,2.6,8.1,5.8,8.3h0.7c1.7,0,9-9.7,9-9.7s130.4-157.8,143.6-174.7c1.7-2,3.3-4.3,4.5-6.6
	C393.4,221.2,392.1,217.4,389.2,214.9z"/>
</svg>
