<svg enable-background="new 0 0 512 512" viewBox="0 0 512 512" xmlns="http://www.w3.org/2000/svg"><path d="m389.7 248.7c-.1 12.5-44.4 22.9-103.7 25.5-1.7.1-10.4.6-29.7.6-15.5 0-26.3-.5-30.2-.7-29.7-1.3-55.7-4.6-74.2-9s-29.6-10.1-29.6-16.4c0-12.4 44.4-22.7 103.8-25.4v40.4c3.9.3 15 1 30.4 1 18.5 0 27.7-.8 29.5-1v-40.4c59.5 2.7 103.7 13 103.7 25.4zm122.3 7.3c0 141.4-114.6 256-256 256s-256-114.6-256-256 114.6-256 256-256 256 114.6 256 256zm-108.3-4.3c0-16-50.4-29.3-117.7-32.4v-36.1h82.7v-55.2h-225.3v55.2h82.7v36.1c-67.2 3.1-117.8 16.4-117.8 32.3 0 16 50.6 29.3 117.8 32.4v116h59.9v-115.9c67.3-3.1 117.7-16.4 117.7-32.4z"/></svg>