<?xml version="1.0" encoding="utf-8"?>
<!-- Generator: Adobe Illustrator 27.6.1, SVG Export Plug-In . SVG Version: 6.00 Build 0)  -->
<svg version="1.1" id="Слой_1" xmlns="http://www.w3.org/2000/svg" xmlns:xlink="http://www.w3.org/1999/xlink" x="0px" y="0px"
	 viewBox="0 0 512 512" style="enable-background:new 0 0 512 512;" xml:space="preserve">
<style type="text/css">
	.st0{fill-rule:evenodd;clip-rule:evenodd;}
</style>
<g>
	<path d="M128,64V32c0-17.7,14.3-32,32-32s32,14.3,32,32v32h128V32c0-17.7,14.3-32,32-32c17.7,0,32,14.3,32,32v32h48
		c26.5,0,48,21.5,48,48v48H32v-48c0-26.5,21.5-48,48-48H128z"/>
	<path class="st0" d="M32,192h448v272c0,26.5-21.5,48-48,48H80c-26.5,0-48-21.5-48-48V192z M260.6,240.4c-1.8-4-7.5-4-9.3,0
		l-26.8,57.7c-0.7,1.6-2.3,2.7-4,2.9l-63.2,7.7c-4.3,0.5-6.1,5.9-2.9,8.8l46.6,43.3c1.3,1.2,1.9,3,1.5,4.7L190.4,428
		c-0.8,4.3,3.7,7.6,7.5,5.5l55.6-30.9c1.5-0.9,3.4-0.9,5,0l55.6,30.9c3.8,2.1,8.4-1.2,7.5-5.5l-12.2-62.4c-0.3-1.7,0.2-3.5,1.5-4.7
		l46.6-43.3c3.2-3,1.5-8.3-2.9-8.8l-63.2-7.7c-1.8-0.2-3.3-1.3-4-2.9L260.6,240.4z"/>
</g>
</svg>
