<?xml version="1.0" encoding="utf-8"?>
<!-- Generator: Adobe Illustrator 27.6.1, SVG Export Plug-In . SVG Version: 6.00 Build 0)  -->
<svg version="1.1" id="Слой_1" xmlns="http://www.w3.org/2000/svg" xmlns:xlink="http://www.w3.org/1999/xlink" x="0px" y="0px"
	 viewBox="0 0 512 512" style="enable-background:new 0 0 512 512;" xml:space="preserve">
<path d="M256,0C114.6,0,0,114.6,0,256s114.6,256,256,256s256-114.6,256-256S397.4,0,256,0z M417.2,417.2
	c-20.9,20.9-45.3,37.4-72.5,48.9C316.6,478,286.8,484,256,484s-60.6-6-88.7-17.9c-27.1-11.5-51.5-27.9-72.5-48.9
	s-37.4-45.3-48.9-72.5C34,316.6,28,286.8,28,256s6-60.6,17.9-88.7c11.5-27.1,27.9-51.5,48.9-72.5s45.3-37.4,72.5-48.9
	C195.4,34,225.2,28,256,28s60.6,6,88.7,17.9c27.1,11.5,51.5,27.9,72.5,48.9s37.4,45.3,48.9,72.5C478,195.4,484,225.2,484,256
	s-6,60.6-17.9,88.7C454.6,371.9,438.2,396.3,417.2,417.2z M333.8,198l-58,58l58,58c5.5,5.5,5.5,14.3,0,19.8
	c-2.7,2.7-6.3,4.1-9.9,4.1s-7.2-1.4-9.9-4.1l-58-58l-58,58c-2.7,2.7-6.3,4.1-9.9,4.1s-7.2-1.4-9.9-4.1c-5.5-5.5-5.5-14.3,0-19.8
	l58-58l-58-58c-5.5-5.5-5.5-14.3,0-19.8c5.5-5.5,14.3-5.5,19.8,0l58,58l58-58c5.5-5.5,14.3-5.5,19.8,0
	C339.2,183.7,339.2,192.5,333.8,198z"/>
</svg>
