<?xml version="1.0" encoding="utf-8"?>
<!-- Generator: Adobe Illustrator 27.6.1, SVG Export Plug-In . SVG Version: 6.00 Build 0)  -->
<svg version="1.1" id="Слой_1" xmlns="http://www.w3.org/2000/svg" xmlns:xlink="http://www.w3.org/1999/xlink" x="0px" y="0px"
	 viewBox="0 0 512 512" style="enable-background:new 0 0 512 512;" xml:space="preserve">
<path d="M333.8,178.2c-5.5-5.5-14.3-5.5-19.8,0l-58,58l-58-58c-5.5-5.5-14.3-5.5-19.8,0c-5.5,5.5-5.5,14.3,0,19.8l58,58l-58,58
	c-5.5,5.5-5.5,14.3,0,19.8c2.7,2.7,6.3,4.1,9.9,4.1s7.2-1.4,9.9-4.1l58-58l58,58c2.7,2.7,6.3,4.1,9.9,4.1s7.2-1.4,9.9-4.1
	c5.5-5.5,5.5-14.3,0-19.8l-58-58l58-58C339.2,192.5,339.2,183.7,333.8,178.2z"/>
</svg>
