<?xml version="1.0" encoding="utf-8"?>
<!-- Generator: Adobe Illustrator 27.6.1, SVG Export Plug-In . SVG Version: 6.00 Build 0)  -->
<svg version="1.1" id="Слой_1" xmlns="http://www.w3.org/2000/svg" xmlns:xlink="http://www.w3.org/1999/xlink" x="0px" y="0px"
	 viewBox="0 0 512 512" style="enable-background:new 0 0 512 512;" xml:space="preserve">
<path d="M256,0C115.2,0,0,115.2,0,256s115.2,256,256,256s256-115.2,256-256S396.8,0,256,0z M417,417c-21,21-45.4,37.5-72.5,49
	c-28.1,11.9-57.8,18-88.5,18s-60.4-6-88.5-18c-27.1-11.5-51.5-28-72.5-49s-37.5-45.4-49-72.5C34,316.4,28,286.6,28,256
	c0-30.6,6-60.4,18-88.5C57.5,140.4,74,116,95,95c21-21,45.4-37.5,72.5-49C195.6,34,225.4,28,256,28s60.4,6,88.5,18
	C371.6,57.5,396,74,417,95c21,21,37.5,45.4,49,72.5c11.9,28.1,18,57.8,18,88.5c0,30.6-6,60.4-18,88.5C454.5,371.6,438,396,417,417z
	 M366.7,178.2c5.5,5.5,5.5,14.3,0,19.8L231,333.8c-2.7,2.7-6.3,4.1-9.9,4.1s-7.2-1.4-9.9-4.1l-67.9-67.9c-5.5-5.5-5.5-14.3,0-19.8
	c5.5-5.5,14.3-5.5,19.8,0l58,58l125.9-125.9C352.4,172.8,361.3,172.8,366.7,178.2z"/>
</svg>
