<?xml version="1.0" encoding="utf-8"?>
<!-- Generator: Adobe Illustrator 27.6.1, SVG Export Plug-In . SVG Version: 6.00 Build 0)  -->
<svg version="1.1" id="Слой_1" xmlns="http://www.w3.org/2000/svg" xmlns:xlink="http://www.w3.org/1999/xlink" x="0px" y="0px"
	 viewBox="0 0 512 512" style="enable-background:new 0 0 512 512;" xml:space="preserve">
<path d="M211,410.8l64-160c2.9-7.2,11-10.7,18.2-7.8c7.2,2.9,10.7,11,7.8,18.2l-64,160c-2.2,5.5-7.4,8.8-13,8.8
	c-1.7,0-3.5-0.3-5.2-1C211.6,426.1,208.1,418,211,410.8z M150.1,391.2c2.7,2.7,6.3,4.1,9.9,4.1s7.2-1.4,9.9-4.1
	c5.5-5.5,5.5-14.3,0-19.8L134.5,336l35.4-35.4c5.5-5.5,5.5-14.3,0-19.8s-14.3-5.5-19.8,0l-45.3,45.3c-5.5,5.5-5.5,14.3,0,19.8
	L150.1,391.2z M342.1,391.2c2.7,2.7,6.3,4.1,9.9,4.1c3.6,0,7.2-1.4,9.9-4.1l45.3-45.3c5.5-5.5,5.5-14.3,0-19.8l-45.3-45.3
	c-5.5-5.5-14.3-5.5-19.8,0s-5.5,14.3,0,19.8l35.4,35.4l-35.4,35.4C336.6,376.8,336.6,385.7,342.1,391.2z M512,96v50v28v242
	c0,53-43,96-96,96H96c-53,0-96-43-96-96V174v-28V96C0,43,43,0,96,0h320C469,0,512,43,512,96z M484,174H28v242c0,37.5,30.5,68,68,68
	h320c37.5,0,68-30.5,68-68V174z M484,146V96c0-37.5-30.5-68-68-68H96c-37.5,0-68,30.5-68,68v50H484z"/>
</svg>
