<?xml version="1.0" encoding="utf-8"?>
<!-- Generator: Adobe Illustrator 27.6.1, SVG Export Plug-In . SVG Version: 6.00 Build 0)  -->
<svg version="1.1" id="Слой_1" xmlns="http://www.w3.org/2000/svg" xmlns:xlink="http://www.w3.org/1999/xlink" x="0px" y="0px"
	 viewBox="0 0 512 512" style="enable-background:new 0 0 512 512;" xml:space="preserve">
<path d="M286,348h-92c-7.7,0-14-6.3-14-14s6.3-14,14-14h92c20.3,0,39.7-4.5,57.8-13.5c12.6-6.3,24.1-14.5,34.2-24.6
	c22.3-22.3,35.8-51.9,37.8-83.3c0.2-2.8,0.3-5.7,0.3-8.6c0-24.7-6.9-48.7-20-69.4c-12.8-20.2-30.8-36.5-52.2-47.1
	c-18-9-37.5-13.5-57.8-13.5H158c-34.7,0-67.4,13.5-91.9,38.1c-17,17-28.9,38.2-34.5,61.4c-2.4,9.9-3.6,20.2-3.6,30.6
	s1.2,20.6,3.6,30.6c1.8,7.5-2.8,15.1-10.3,16.9c-7.5,1.8-15.1-2.8-16.9-10.3C1.5,215,0,202.6,0,190s1.5-25,4.4-37.1
	c6.8-28.2,21.3-54,41.9-74.6C76.1,48.4,115.8,32,158,32h128c24.7,0,48.3,5.5,70.2,16.4c25.9,12.9,47.9,32.7,63.4,57.2
	c16,25.2,24.4,54.4,24.4,84.4c0,3.5-0.1,7-0.3,10.4c-2.5,38.2-18.8,74.2-45.9,101.3c-12.2,12.2-26.1,22.2-41.5,29.8
	C334.3,342.5,310.7,348,286,348z M465.7,433.7c20.6-20.6,35.1-46.4,41.9-74.6c2.9-12.1,4.4-24.6,4.4-37.1s-1.5-25-4.4-37.1
	c-1.8-7.5-9.4-12.1-16.9-10.3c-7.5,1.8-12.1,9.4-10.3,16.9c2.4,9.9,3.6,20.2,3.6,30.6s-1.2,20.6-3.6,30.6
	c-5.6,23.2-17.5,44.4-34.5,61.4C421.4,438.5,388.7,452,354,452H226c-20.3,0-39.7-4.5-57.8-13.5c-21.4-10.6-39.4-26.9-52.2-47.1
	c-13.1-20.7-20-44.7-20-69.4c0-34.7,13.5-67.4,38.1-91.9c10-10,21.5-18.3,34.2-24.6c18-9,37.5-13.5,57.8-13.5h92c7.7,0,14-6.3,14-14
	s-6.3-14-14-14h-92c-24.7,0-48.3,5.5-70.2,16.4c-15.4,7.6-29.3,17.7-41.5,29.8C84.4,240.1,68,279.8,68,322c0,30,8.4,59.1,24.4,84.4
	c15.5,24.5,37.4,44.3,63.4,57.2c21.9,10.9,45.6,16.4,70.2,16.4h128C396.2,480,435.9,463.6,465.7,433.7z"/>
</svg>
