<?xml version="1.0" encoding="utf-8"?>
<!-- Generator: Adobe Illustrator 27.6.1, SVG Export Plug-In . SVG Version: 6.00 Build 0)  -->
<svg version="1.1" id="Слой_1" xmlns="http://www.w3.org/2000/svg" xmlns:xlink="http://www.w3.org/1999/xlink" x="0px" y="0px"
	 viewBox="0 0 512 512" style="enable-background:new 0 0 512 512;" xml:space="preserve">
<path d="M402,478H110C49.3,478,0,428.7,0,368V144C0,83.3,49.3,34,110,34h292c60.7,0,110,49.3,110,110v224
	C512,428.7,462.7,478,402,478z M110,62c-45.2,0-82,36.8-82,82v224c0,45.2,36.8,82,82,82h292c45.2,0,82-36.8,82-82V144
	c0-45.2-36.8-82-82-82H110z M141.4,322.5l70.7-70.7c5.5-5.5,14.3-5.5,19.8,0l28.3,28.3c7.9,7.9,18.5,12.3,29.7,12.3
	s21.8-4.4,29.7-12.3l70.7-70.7c5.5-5.5,5.5-14.3,0-19.8s-14.3-5.5-19.8,0l-70.7,70.7c-2.6,2.6-6.2,4.1-9.9,4.1s-7.3-1.5-9.9-4.1
	L251.8,232c-7.9-7.9-18.5-12.3-29.7-12.3s-21.8,4.4-29.7,12.3l-70.7,70.7c-5.5,5.5-5.5,14.3,0,19.8c2.7,2.7,6.3,4.1,9.9,4.1
	S138.7,325.2,141.4,322.5z M270,112c0-7.7-6.3-14-14-14c-7.7,0-14,6.3-14,14s6.3,14,14,14h0.1C263.8,126,270,119.7,270,112z
	 M226,112c0-7.7-6.3-14-14-14s-14,6.3-14,14s6.3,14,14,14h0.1C219.8,126,226,119.7,226,112z M314,112c0-7.7-6.3-14-14-14
	s-14,6.3-14,14s6.3,14,14,14h0.1C307.8,126,314,119.7,314,112z"/>
</svg>
