<?xml version="1.0" encoding="utf-8"?>
<!-- Generator: Adobe Illustrator 27.6.1, SVG Export Plug-In . SVG Version: 6.00 Build 0)  -->
<svg version="1.1" id="Слой_1" xmlns="http://www.w3.org/2000/svg" xmlns:xlink="http://www.w3.org/1999/xlink" x="0px" y="0px"
	 viewBox="0 0 512 512" style="enable-background:new 0 0 512 512;" xml:space="preserve">
<path d="M114.1,225.4c0-0.4-0.1-0.9-0.1-1.3s0-0.9,0.1-1.3c0-0.2,0.1-0.4,0.1-0.6s0.1-0.5,0.1-0.7c0-0.2,0.1-0.5,0.2-0.7
	c0.1-0.2,0.1-0.4,0.2-0.6s0.2-0.5,0.2-0.7c0.1-0.2,0.1-0.4,0.2-0.6c0.1-0.2,0.2-0.4,0.3-0.6c0.1-0.2,0.2-0.4,0.3-0.6
	s0.2-0.4,0.3-0.6c0.1-0.2,0.2-0.4,0.4-0.6c0.1-0.5,0.3-0.7,0.4-0.9c0.1-0.2,0.2-0.3,0.4-0.5c0.3-0.4,0.6-0.7,0.9-1l67.9-67.9
	c5.5-5.5,14.3-5.5,19.8,0s5.5,14.3,0,19.8l-44,44H384c7.7,0,14,6.3,14,14s-6.3,14-14,14H128c-0.5,0-0.9,0-1.4-0.1
	c-0.2,0-0.4-0.1-0.6-0.1s-0.5-0.1-0.7-0.1c-0.2,0-0.5-0.1-0.7-0.2c-0.2-0.1-0.4-0.1-0.6-0.2s-0.4-0.2-0.7-0.2
	c-0.2-0.1-0.4-0.1-0.6-0.2c-0.2-0.1-0.4-0.2-0.6-0.3c-0.2-0.1-0.4-0.2-0.6-0.3c-0.2-0.1-0.4-0.2-0.6-0.3c-0.2-0.1-0.4-0.2-0.6-0.4
	c-0.2-0.1-0.4-0.3-0.6-0.4c-0.2-0.1-0.3-0.2-0.5-0.4c-0.7-0.6-1.4-1.2-2-2c-0.1-0.2-0.2-0.3-0.4-0.5c-0.2-0.2-0.3-0.4-0.4-0.6
	s-0.2-0.4-0.4-0.6c-0.1-0.2-0.2-0.4-0.3-0.6c-0.1-0.2-0.2-0.4-0.3-0.6c-0.1-0.2-0.2-0.4-0.3-0.6c-0.1-0.2-0.2-0.4-0.2-0.6
	c-0.1-0.2-0.2-0.4-0.2-0.7c-0.1-0.2-0.1-0.4-0.2-0.6c-0.1-0.2-0.1-0.5-0.2-0.7c0-0.2-0.1-0.5-0.1-0.7
	C114.2,225.8,114.1,225.6,114.1,225.4z M398,286.3c0-0.3,0-0.5-0.1-0.8c-0.1-0.3-0.1-0.5-0.2-0.7c-0.1-0.3-0.1-0.5-0.2-0.7
	c0-0.3-0.1-0.5-0.2-0.7c0-0.2-0.1-0.4-0.2-0.6s-0.2-0.4-0.3-0.6s-0.2-0.4-0.3-0.6s-0.2-0.4-0.3-0.6c-0.2-0.2-0.3-0.4-0.4-0.6
	c-0.2-0.2-0.3-0.4-0.5-0.6c-0.2-0.2-0.3-0.3-0.4-0.5c-0.6-0.8-1.3-1.4-2-2c-0.2-0.1-0.3-0.2-0.5-0.3c-0.2-0.2-0.4-0.4-0.6-0.5
	c-0.2-0.2-0.4-0.3-0.6-0.4c-0.2-0.2-0.4-0.3-0.6-0.4c-0.2-0.1-0.4-0.2-0.6-0.3c-0.2-0.1-0.4-0.2-0.6-0.3c-0.2-0.1-0.4-0.1-0.6-0.2
	c-0.2,0-0.5-0.1-0.7-0.2c-0.2-0.1-0.4-0.1-0.6-0.2c-0.2-0.1-0.5-0.2-0.7-0.2s-0.5-0.1-0.7-0.1s-0.5-0.1-0.7-0.1
	c-0.4-0.1-0.8-0.1-1.2-0.1c-0.1,0-0.1,0-0.2,0H128c-7.7,0-14,6.3-14,14s6.3,14,14,14h222.2l-44,44c-5.5,5.5-5.5,14.3,0,19.8
	c2.7,2.7,6.3,4.1,9.9,4.1c3.6,0,7.2-1.4,9.9-4.1l67.9-67.9c0.3-0.3,0.6-0.6,0.9-1c0.2-0.2,0.3-0.3,0.4-0.5c0.1-0.2,0.3-0.4,0.6-0.2
	c0.2-0.2,0.3-0.4,0.4-0.6c0.1-0.2,0.2-0.4,0.3-0.6c0.1-0.2,0.2-0.4,0.3-0.6c0.1-0.2,0.2-0.4,0.3-0.6c0.1-0.2,0.1-0.4,0.2-0.6
	c0-0.3,0.1-0.5,0.2-0.7c0.1-0.3,0.1-0.5,0.2-0.7c0.1-0.2,0.2-0.5,0.2-0.7c0-0.3,0.1-0.5,0.1-0.8c0-0.2,0.1-0.4,0.1-0.6
	c0.1-1,0.1-1.9,0-2.8C398.1,286.7,398,286.5,398,286.3z M512,96v320c0,53-43,96-96,96H96c-53,0-96-43-96-96V96C0,43,43,0,96,0h320
	C469,0,512,43,512,96z M484,96c0-37.5-30.5-68-68-68H96c-37.5,0-68,30.5-68,68v320c0,37.5,30.5,68,68,68h320c37.5,0,68-30.5,68-68
	V96z"/>
</svg>
