<?xml version="1.0" encoding="utf-8"?>
<!-- Generator: Adobe Illustrator 27.6.1, SVG Export Plug-In . SVG Version: 6.00 Build 0)  -->
<svg version="1.1" id="Слой_1" xmlns="http://www.w3.org/2000/svg" xmlns:xlink="http://www.w3.org/1999/xlink" x="0px" y="0px"
	 viewBox="0 0 512 512" style="enable-background:new 0 0 512 512;" xml:space="preserve">
<path d="M512,144.1L512,144.1C512,83.3,462.7,34,402,34H110C49.3,34,0,83.3,0,144v0.1c0,0,0,0.1,0,0.1V368c0,60.7,49.3,110,110,110
	h292c60.7,0,110-49.3,110-110V144.1C512,144.1,512,144.1,512,144.1z M110,62h292c42.4,0,77.5,32.4,81.6,73.8L256,256.2L28.4,135.8
	C32.5,94.4,67.6,62,110,62z M402,450H110c-45.2,0-82-36.8-82-82V167.2l221.5,117.1c2,1.1,4.3,1.6,6.5,1.6s4.5-0.5,6.5-1.6L484,167.2
	V368C484,413.2,447.2,450,402,450z"/>
</svg>
