<?xml version="1.0" encoding="utf-8"?>
<!-- Generator: Adobe Illustrator 27.6.1, SVG Export Plug-In . SVG Version: 6.00 Build 0)  -->
<svg version="1.1" id="Слой_1" xmlns="http://www.w3.org/2000/svg" xmlns:xlink="http://www.w3.org/1999/xlink" x="0px" y="0px"
	 viewBox="0 0 512 512" style="enable-background:new 0 0 512 512;" xml:space="preserve">
<path d="M256,462c-38.7,0-75.9-9.6-110.5-28.6c-27.7-15.2-53.8-36.4-77.6-63c-38-42.6-59.3-87.1-64.9-99.7l-0.4-0.9
	c-3.6-8.9-3.6-18.7,0-27.6l0.4-0.9c5.6-12.6,26.8-57.1,64.9-99.7c23.8-26.6,49.9-47.8,77.6-63C180.1,59.6,217.3,50,256,50
	c38.7,0,75.9,9.6,110.5,28.6c27.7,15.2,53.8,36.4,77.6,63c38,42.6,59.3,87.1,64.9,99.7l0.4,0.9c3.6,8.9,3.6,18.7,0,27.6l-0.4,0.9
	c-5.6,12.6-26.8,57.1-64.9,99.7c-23.8,26.6-49.9,47.8-77.6,63C331.9,452.4,294.7,462,256,462z M28.6,259.1l0.1,0.2
	c5.2,11.7,24.8,52.9,60.1,92.4c48.8,54.6,105,82.3,167.2,82.3c62.2,0,118.4-27.7,167.2-82.3c35.3-39.5,55-80.7,60.2-92.4l0.1-0.2
	c0.8-2,0.8-4.2,0-6.2l-0.1-0.2c-5.2-11.7-24.9-52.9-60.2-92.4C374.4,105.7,318.2,78,256,78c-62.2,0-118.4,27.7-167.2,82.3
	c-35.3,39.5-55,80.7-60.1,92.4l-0.1,0.2C27.8,254.9,27.8,257.1,28.6,259.1z M256,366L256,366c-60.7,0-110-49.3-110-110
	s49.3-110,110-110s110,49.3,110,110c-0.1,29.4-11.6,57-32.3,77.7C313,354.4,285.4,365.9,256,366L256,366z M256,174
	c-45.2,0-82,36.8-82,82c0,45.2,36.8,82,82,82c45.1-0.1,81.9-36.9,82-82C338,210.8,301.2,174,256,174z"/>
</svg>
