<?xml version="1.0" encoding="utf-8"?>
<!-- Generator: Adobe Illustrator 27.6.1, SVG Export Plug-In . SVG Version: 6.00 Build 0)  -->
<svg version="1.1" id="Слой_1" xmlns="http://www.w3.org/2000/svg" xmlns:xlink="http://www.w3.org/1999/xlink" x="0px" y="0px"
	 viewBox="0 0 512 512" style="enable-background:new 0 0 512 512;" xml:space="preserve">
<path d="M509.3,242.2c-0.1-0.2-0.1-0.3-0.2-0.5l-0.2-0.4c-5.6-12.6-26.8-57.1-64.9-99.7c-8.7-9.7-17.7-18.7-27-27l90.8-90.8
	c5.5-5.5,5.5-14.3,0-19.8c-5.5-5.5-14.3-5.5-19.8,0L395.2,97c-9.3-6.8-18.9-13-28.7-18.3C331.9,59.6,294.7,50,256,50
	c-38.7,0-75.9,9.6-110.5,28.6c-27.7,15.2-53.8,36.4-77.6,63c-38,42.6-59.3,87.1-64.9,99.7l-0.2,0.4c-0.1,0.2-0.1,0.3-0.2,0.5
	c-3.6,8.9-3.6,18.7,0,27.6c0.1,0.2,0.1,0.3,0.2,0.5l0.2,0.4c5.6,12.6,26.8,57.1,64.9,99.7c8.7,9.7,17.7,18.7,27,27L4.1,488.1
	c-5.5,5.5-5.5,14.3,0,19.8c2.7,2.7,6.3,4.1,9.9,4.1s7.2-1.4,9.9-4.1l92.9-92.9c9.3,6.8,18.9,13,28.7,18.3
	c34.6,19,71.8,28.6,110.5,28.6c38.7,0,75.9-9.6,110.5-28.6c27.7-15.2,53.8-36.4,77.6-63c38-42.6,59.3-87.1,64.9-99.7l0.2-0.4
	c0.1-0.2,0.1-0.3,0.2-0.5C512.9,260.9,512.9,251.1,509.3,242.2z M88.8,351.7c-35.3-39.5-55-80.7-60.1-92.4l-0.1-0.2
	c-0.8-2-0.8-4.2,0-6.2l0.1-0.2c5.2-11.7,24.8-52.9,60.1-92.4C137.6,105.7,193.8,78,256,78c42.7,0,82.6,13.1,119.2,39l-52,52
	C304.1,154.1,280.7,146,256,146c-60.7,0-110,49.3-110,110c0,24.7,8.1,48.1,22.9,67.3l-54.3,54.3C105.8,369.7,97.2,361.1,88.8,351.7z
	 M189,303.2c-9.7-13.7-15-30.1-15-47.2c0-45.2,36.8-82,82-82c17.2,0,33.5,5.3,47.2,15L189,303.2z M483.4,259.1l-0.1,0.2
	c-5.2,11.7-24.9,52.9-60.2,92.4C374.4,406.3,318.2,434,256,434c-42.7,0-82.6-13.1-119.2-39l260.6-260.6c8.8,7.8,17.5,16.4,25.9,25.8
	c35.3,39.5,55,80.7,60.2,92.4l0.1,0.2C484.2,254.9,484.2,257.1,483.4,259.1z M366,256c-0.1,29.3-11.6,56.9-32.3,77.7
	C313,354.4,285.4,365.9,256,366c0,0,0,0,0,0c-7.7,0-14-6.2-14-14c0-7.7,6.2-14,14-14c45.1-0.1,81.9-36.9,82-82c0-7.7,6.3-14,14-14
	c0,0,0,0,0,0C359.8,242,366,248.3,366,256z"/>
</svg>
