<?xml version="1.0" encoding="utf-8"?>
<!-- Generator: Adobe Illustrator 27.6.1, SVG Export Plug-In . SVG Version: 6.00 Build 0)  -->
<svg version="1.1" id="Слой_1" xmlns="http://www.w3.org/2000/svg" xmlns:xlink="http://www.w3.org/1999/xlink" x="0px" y="0px"
	 viewBox="0 0 512 512" style="enable-background:new 0 0 512 512;" xml:space="preserve">
<path d="M144.4,110.6C64.7,110.6,0,175.7,0,256s64.7,145.4,144.4,145.4S288.8,336.3,288.8,256S224.2,110.6,144.4,110.6z M375,119.1
	c-39.9,0-72.2,61.3-72.2,136.9s32.3,136.9,72.2,136.9s72.2-61.3,72.2-136.9h0C447.2,180.4,414.9,119.1,375,119.1L375,119.1z
	 M486.6,133.4c-14,0-25.4,54.9-25.4,122.6s11.4,122.6,25.4,122.6c14,0,25.4-54.9,25.4-122.6C512,188.3,500.6,133.4,486.6,133.4
	L486.6,133.4z"/>
</svg>
