<?xml version="1.0" encoding="utf-8"?>
<!-- Generator: Adobe Illustrator 27.6.1, SVG Export Plug-In . SVG Version: 6.00 Build 0)  -->
<svg version="1.1" id="Слой_1" xmlns="http://www.w3.org/2000/svg" xmlns:xlink="http://www.w3.org/1999/xlink" x="0px" y="0px"
	 viewBox="0 0 512 512" style="enable-background:new 0 0 512 512;" xml:space="preserve">
<path d="M365.7,219.3c-80.7,0-146.3,65.7-146.3,146.3S285,512,365.7,512c80.7,0,146.3-65.7,146.3-146.3S446.3,219.3,365.7,219.3z
	 M365.7,484c-65.3,0-118.3-53.1-118.3-118.3s53.1-118.3,118.3-118.3S484,300.4,484,365.7S430.9,484,365.7,484z M365.7,253.3
	c-61.9,0-112.3,50.4-112.3,112.3S303.7,478,365.7,478S478,427.6,478,365.7S427.6,253.3,365.7,253.3z M365.7,450
	c-46.5,0-84.3-37.8-84.3-84.3c0-46.5,37.8-84.3,84.3-84.3c46.5,0,84.3,37.8,84.3,84.3C450,412.1,412.1,450,365.7,450z M292.7,146.3
	C292.7,65.7,227,0,146.3,0C65.6,0,0,65.7,0,146.3C0,227,65.7,292.7,146.3,292.7C227,292.7,292.7,227,292.7,146.3L292.7,146.3z
	 M28,146.3C28,81.1,81.1,28,146.3,28c65.3,0,118.3,53.1,118.3,118.3c0,65.3-53.1,118.3-118.3,118.3C81.1,264.7,28,211.6,28,146.3z
	 M258.7,146.3C258.7,84.4,208.3,34,146.4,34C84.4,34,34,84.4,34,146.3s50.4,112.3,112.3,112.3C208.3,258.7,258.7,208.3,258.7,146.3z
	 M62,146.3C62,99.9,99.9,62,146.4,62c46.5,0,84.3,37.8,84.3,84.3c0,46.5-37.8,84.3-84.3,84.3C99.9,230.7,62,192.8,62,146.3z
	 M328.5,91.2c3.7-6.8,12.1-9.4,19-5.7c22.9,12.3,42.9,28.9,59.1,48.9l0.5-2.9c1.3-7.6,8.6-12.7,16.2-11.4
	c7.6,1.3,12.7,8.6,11.4,16.2l-6.6,37.2c0,0.1,0,0.1,0,0.2c0,0.1-0.1,0.3-0.1,0.4c-0.1,0.3-0.1,0.6-0.2,0.9c0,0.1-0.1,0.2-0.1,0.2
	c-0.1,0.4-0.2,0.7-0.4,1.1c0,0,0,0.1-0.1,0.1c-0.2,0.4-0.3,0.7-0.5,1.1c0,0,0,0.1,0,0.1c-0.2,0.4-0.4,0.8-0.7,1.1c0,0,0,0,0,0
	c-2.5,3.9-6.9,6.3-11.7,6.3c-0.8,0-1.6-0.1-2.4-0.2c-0.2,0-0.3-0.1-0.4-0.1l-36.8-6.5c-7.6-1.3-12.7-8.6-11.4-16.2
	c1.3-7.6,8.6-12.7,16.2-11.4l5.1,0.9c-13.8-17-30.8-31.1-50.3-41.6C327.4,106.5,324.9,98,328.5,91.2L328.5,91.2z M185.3,414.8
	c0,0.2,0,0.4,0,0.7c0,0.2,0,0.4-0.1,0.7c0,0.2-0.1,0.5-0.1,0.8c0,0.2-0.1,0.4-0.1,0.6c-0.1,0.3-0.1,0.6-0.2,0.8
	c0,0.2-0.1,0.3-0.1,0.5c-0.1,0.3-0.2,0.6-0.3,0.9c-0.1,0.1-0.1,0.3-0.2,0.4c-0.1,0.3-0.3,0.7-0.5,1c0,0.1-0.1,0.1-0.1,0.2
	c0,0,0,0.1-0.1,0.1c-0.1,0.2-0.2,0.4-0.3,0.5c-0.1,0.2-0.2,0.3-0.3,0.5c-0.1,0.2-0.2,0.3-0.3,0.5c-0.2,0.2-0.3,0.5-0.5,0.7
	c-0.2,0.2-0.3,0.4-0.5,0.5c-0.2,0.2-0.3,0.3-0.4,0.5c-0.1,0.1-0.3,0.3-0.4,0.4c-0.1,0.1-0.3,0.2-0.4,0.4c-0.3,0.3-0.6,0.5-1,0.8
	c-0.1,0.1-0.2,0.1-0.3,0.2c-0.2,0.2-0.4,0.3-0.7,0.4c-0.1,0-0.2,0.1-0.3,0.1c-0.7,0.4-1.5,0.8-2.3,1c-0.1,0-0.2,0.1-0.3,0.1
	c-0.4,0.1-0.9,0.3-1.3,0.4c-0.1,0-0.2,0.1-0.3,0.1c-0.1,0-0.2,0.1-0.3,0.1c-0.1,0-0.2,0-0.3,0l-37,6.5c-0.8,0.2-1.6,0.2-2.4,0.2
	c-6.7,0-12.6-4.8-13.8-11.6c-1.3-7.6,3.7-14.9,11.4-16.2l2.8-0.5c-20.1-16.2-36.9-36.4-49.2-59.5c-3.7-6.8-1.1-15.3,5.7-19
	c6.8-3.6,15.3-1.1,18.9,5.7c10.5,19.7,24.8,36.9,42,50.8l-0.9-5.2c-1.3-7.6,3.7-14.9,11.4-16.2c7.6-1.4,14.9,3.7,16.2,11.4l6.6,37.2
	c0,0,0,0,0,0c0,0.1,0,0.3,0.1,0.4c0,0.3,0.1,0.6,0.1,0.9c0,0.1,0,0.1,0,0.2c0,0.1,0,0.3,0,0.4C185.3,414.3,185.3,414.5,185.3,414.8
	L185.3,414.8z"/>
</svg>
