<?xml version="1.0" encoding="utf-8"?>
<!-- Generator: Adobe Illustrator 27.6.1, SVG Export Plug-In . SVG Version: 6.00 Build 0)  -->
<svg version="1.1" id="gear" xmlns="http://www.w3.org/2000/svg" xmlns:xlink="http://www.w3.org/1999/xlink" x="0px" y="0px"
	 viewBox="0 0 512 512" style="enable-background:new 0 0 512 512;" xml:space="preserve">
<style type="text/css">
	.st0{fill:none;stroke:#000000;stroke-width:28;stroke-linejoin:round;stroke-miterlimit:10;}
</style>
<path class="st0" d="M462.1,256.1c0-20.7,9.9-39.1,25.3-50.6c9.2-6.9,12.9-19.1,9.3-30c-3.7-11.1-8.2-22-13.4-32.5
	c-5.1-10.3-16.3-16.3-27.7-14.7c-2.9,0.4-5.9,0.6-8.9,0.6c-16.2,0-32.4-6.2-44.8-18.6c-14.6-14.6-20.6-34.6-17.9-53.7
	c1.6-11.4-4.3-22.7-14.6-27.8c-10.5-5.2-21.3-9.7-32.5-13.5c-11-3.7-23.1,0-30,9.3C295.1,40,276.7,50,256,50
	c-20.7,0-39.1-9.9-50.7-25.3c-6.9-9.2-19.1-12.9-30-9.3c-11.1,3.7-22,8.2-32.5,13.5c-10.3,5.2-16.2,16.4-14.6,27.8
	c2.7,19-3.3,39-17.9,53.7c-12.4,12.4-28.6,18.6-44.8,18.6c-3,0-5.9-0.2-8.9-0.6c-11.4-1.6-22.6,4.3-27.7,14.7
	c-5.2,10.5-9.7,21.4-13.4,32.5c-3.7,10.9,0.1,23,9.3,30C40,217,49.9,235.4,49.9,256.1c0,20.7-9.9,39.1-25.2,50.6
	c-9.2,7-12.9,19.1-9.3,30c3.7,11.1,8.2,22,13.5,32.5c5.1,10.3,16.3,16.2,27.7,14.7c2.9-0.4,5.9-0.6,8.8-0.6
	c16.2,0,32.4,6.2,44.8,18.6c14.6,14.6,20.6,34.6,18,53.6c-1.6,11.4,4.3,22.6,14.7,27.8c10.5,5.2,21.4,9.7,32.5,13.5
	c10.9,3.7,23,0,30-9.2c11.6-15.3,29.9-25.2,50.6-25.2s39,9.9,50.6,25.2c7,9.2,19,12.9,30,9.2c11.1-3.7,22-8.2,32.5-13.5
	c10.3-5.2,16.2-16.3,14.6-27.8c-2.6-19,3.3-39,18-53.6c12.4-12.4,28.6-18.6,44.8-18.6c2.9,0,5.9,0.2,8.8,0.6
	c11.3,1.6,22.5-4,27.6-14.2c5.3-10.6,9.9-21.6,13.7-32.9c3.7-10.9,0-23-9.3-30C472,295.1,462.1,276.7,462.1,256.1L462.1,256.1z
	 M257.2,367.9c-62,0-112-50.3-112-112c0-61.7,50-112,112-112c62,0,112,50.3,112,112C369.2,317.6,319.2,367.9,257.2,367.9z"/>
</svg>
