<?xml version="1.0" encoding="utf-8"?>
<!-- Generator: Adobe Illustrator 27.6.1, SVG Export Plug-In . SVG Version: 6.00 Build 0)  -->
<svg version="1.1" id="Слой_1" xmlns="http://www.w3.org/2000/svg" xmlns:xlink="http://www.w3.org/1999/xlink" x="0px" y="0px"
	 viewBox="0 0 512 512" style="enable-background:new 0 0 512 512;" xml:space="preserve">
<path d="M437,75C388.7,26.6,324.4,0,256,0S123.3,26.6,75,75C26.6,123.3,0,187.6,0,256s26.6,132.7,75,181c48.4,48.4,112.6,75,181,75
	s132.7-26.6,181-75s75-112.6,75-181S485.4,123.3,437,75z M256,484c-21.8,0-44.2-22.8-61.4-62.5c-9-20.7-16.1-44.7-21.1-70.9h164.9
	c-5,26.2-12.1,50.2-21.1,70.9C300.2,461.2,277.8,484,256,484z M169.1,322.7c-2.7-21.3-4.1-43.7-4.1-66.7s1.4-45.3,4.1-66.7h173.8
	c2.7,21.3,4.1,43.7,4.1,66.7c0,22.9-1.4,45.3-4.1,66.7H169.1z M28,256c0-22.9,3.4-45.3,9.9-66.7h103.1c-2.6,21.5-3.9,43.8-3.9,66.7
	c0,22.8,1.3,45.2,3.9,66.7H37.9C31.4,301.3,28,278.9,28,256z M256,28c21.8,0,44.2,22.8,61.4,62.5c9,20.7,16.1,44.7,21.1,70.9H173.5
	c5-26.2,12.1-50.2,21.1-70.9C211.8,50.8,234.2,28,256,28z M371.1,189.3h103.1c6.5,21.3,9.9,43.7,9.9,66.7c0,22.9-3.4,45.3-9.9,66.7
	H371.1c2.6-21.5,3.9-43.8,3.9-66.7C375,233.2,373.7,210.8,371.1,189.3z M463.5,161.3h-96.6c-5.4-30.3-13.4-58.1-23.8-82
	c-7.3-16.7-15.5-31-24.4-42.6c36.9,10.5,70.7,30.2,98.5,58.1C436.8,114.4,452.4,136.9,463.5,161.3z M94.8,94.8
	c27.9-27.9,61.6-47.6,98.5-58.1c-8.9,11.6-17.1,25.9-24.4,42.6c-10.4,23.9-18.4,51.8-23.8,82H48.5C59.6,136.9,75.2,114.4,94.8,94.8z
	 M48.5,350.7h96.6c5.4,30.3,13.4,58.1,23.8,82c7.3,16.7,15.5,31,24.4,42.6c-36.9-10.5-70.7-30.2-98.5-58.1
	C75.2,397.6,59.6,375.1,48.5,350.7z M417.2,417.2c-27.9,27.9-61.6,47.6-98.5,58.1c8.9-11.6,17.1-25.9,24.4-42.6
	c10.4-23.9,18.4-51.8,23.8-82h96.6C452.4,375.1,436.8,397.6,417.2,417.2z"/>
</svg>
