<?xml version="1.0" encoding="utf-8"?>
<!-- Generator: Adobe Illustrator 27.6.1, SVG Export Plug-In . SVG Version: 6.00 Build 0)  -->
<svg version="1.1" id="Слой_1" xmlns="http://www.w3.org/2000/svg" xmlns:xlink="http://www.w3.org/1999/xlink" x="0px" y="0px"
	 viewBox="0 0 512 512" style="enable-background:new 0 0 512 512;" xml:space="preserve">
<path d="M512,256c0,68.4-26.6,132.7-75,181s-112.6,75-181,75c-68.4,0-132.7-26.6-181-75c-5.5-5.5-5.5-14.3,0-19.8
	c5.5-5.5,14.3-5.5,19.8,0C137.9,460.3,195.1,484,256,484c60.9,0,118.2-23.7,161.2-66.8C460.3,374.2,484,316.9,484,256
	s-23.7-118.2-66.8-161.2C374.2,51.7,316.9,28,256,28c-48.5,0-94.6,15-133.2,42.9h32.9c7.7,0,14,6.3,14,14s-6.3,14-14,14H84.9
	c0,0-0.1,0-0.1,0c-0.4,0-0.8,0-1.2-0.1c-0.2,0-0.5-0.1-0.7-0.1c-0.2,0-0.5-0.1-0.7-0.1c-0.3,0-0.5-0.1-0.7-0.2
	c-0.2-0.1-0.4-0.1-0.6-0.2c-0.2-0.1-0.5-0.2-0.7-0.2c-0.2-0.1-0.4-0.1-0.6-0.2c-0.2-0.1-0.4-0.2-0.6-0.3c-0.2-0.1-0.4-0.2-0.6-0.3
	c-0.2-0.1-0.4-0.2-0.6-0.4c-0.2-0.1-0.4-0.2-0.6-0.4c-0.2-0.1-0.4-0.3-0.6-0.5c-0.2-0.1-0.3-0.2-0.5-0.4c-0.4-0.3-0.7-0.6-1-0.9
	c0,0,0,0,0,0c0,0,0,0,0,0c-0.3-0.3-0.6-0.7-0.9-1c-0.1-0.2-0.2-0.3-0.4-0.5c-0.2-0.2-0.3-0.4-0.4-0.6c-0.1-0.2-0.2-0.4-0.4-0.6
	c-0.1-0.2-0.2-0.4-0.3-0.6c-0.1-0.2-0.2-0.4-0.3-0.6c-0.1-0.2-0.2-0.4-0.3-0.6c-0.1-0.2-0.2-0.4-0.2-0.6c-0.1-0.2-0.2-0.4-0.2-0.7
	c-0.1-0.2-0.1-0.4-0.2-0.6c-0.1-0.2-0.1-0.4-0.2-0.7c-0.1-0.3-0.1-0.5-0.1-0.8c0-0.2-0.1-0.4-0.1-0.6c0-0.5-0.1-0.9-0.1-1.4V14
	c0-7.7,6.3-14,14-14s14,6.3,14,14v39.8C143.6,18.9,198.4,0,256,0c68.4,0,132.7,26.6,181,75C485.4,123.3,512,187.6,512,256z M256,146
	c-7.7,0-14,6.3-14,14v96c0,0,0,0,0,0c0,0.5,0,0.9,0.1,1.3c0,0.2,0.1,0.4,0.1,0.6c0,0.2,0.1,0.5,0.1,0.7c0,0.2,0.1,0.5,0.2,0.7
	c0.1,0.2,0.1,0.4,0.2,0.6c0.1,0.2,0.2,0.4,0.2,0.7c0.1,0.2,0.1,0.4,0.2,0.6c0.1,0.2,0.2,0.4,0.3,0.6c0.1,0.2,0.2,0.4,0.3,0.6
	c0.1,0.2,0.2,0.4,0.3,0.5c0.1,0.2,0.2,0.4,0.4,0.6c0.1,0.2,0.3,0.4,0.4,0.6c0.1,0.2,0.3,0.4,0.4,0.5c0.3,0.3,0.5,0.6,0.8,0.9
	c0,0,0.1,0.1,0.1,0.1l67.9,67.9c2.7,2.7,6.3,4.1,9.9,4.1c3.6,0,7.2-1.4,9.9-4.1c5.5-5.5,5.5-14.3,0-19.8L270,250.2V160
	C270,152.3,263.7,146,256,146z"/>
</svg>
