<?xml version="1.0" encoding="utf-8"?>
<!-- Generator: Adobe Illustrator 27.6.1, SVG Export Plug-In . SVG Version: 6.00 Build 0)  -->
<svg version="1.1" id="home" xmlns="http://www.w3.org/2000/svg" xmlns:xlink="http://www.w3.org/1999/xlink" x="0px" y="0px"
	 viewBox="0 0 512 512" style="enable-background:new 0 0 512 512;" xml:space="preserve">
<path d="M506.8,199.1l-242-196c-5.1-4.2-12.5-4.2-17.6,0l-242,196c-4.6,3.7-6.4,10-4.4,15.6S8.1,224,14,224h48v274
	c0,7.7,6.3,14,14,14h360c7.7,0,14-6.3,14-14V224h48c5.9,0,11.2-3.7,13.2-9.3C513.2,209.1,511.4,202.9,506.8,199.1z M436,196
	c-7.7,0-14,6.3-14,14v274H90V210c0-7.7-6.3-14-14-14H53.5L256,32l202.5,164H436z M218.2,205.1l-6.2,2.1
	c-37.9,12.8-52.1,17.5-58.7,26.8c-6.6,9.3-6.6,24.1-6.6,63.7v16.4c0,29.5,10,55.2,29.7,76.5c16.8,18.2,37.5,29.3,51.9,35.5
	c9,3.9,14.7,6.1,27.8,6.1s18.8-2.2,27.8-6c14.4-6.2,35.1-17.3,51.9-35.5c19.7-21.3,29.7-47.1,29.7-76.5v-16.4
	c0-39.6,0-54.4-6.6-63.6c-6.6-9.2-20.8-14-58.7-26.8l-6.5-2.2c-17.2-5.8-26.7-8.9-37.5-8.9C245.2,196,235.6,199.2,218.2,205.1z
	 M291.1,233.7c21.1,7.1,39.5,13.3,44.7,16.7c1.6,5.9,1.6,25.1,1.6,47.2v16.4c0,22.2-7.5,41.6-22.3,57.5
	c-13.4,14.5-30.4,23.7-42.4,28.8c-6.9,3-8.8,3.8-16.7,3.8s-9.8-0.8-16.8-3.8c-11.9-5.1-28.9-14.2-42.3-28.8
	c-14.8-16-22.3-35.3-22.3-57.5v-16.4c0-22.1,0-41.3,1.6-47.2c5.2-3.4,23.6-9.6,44.7-16.7l6.2-2.1c15.1-5.1,22.6-7.6,28.9-7.6
	c6.2,0,13.7,2.5,28.6,7.5L291.1,233.7z"/>
</svg>
