<?xml version="1.0" encoding="utf-8"?>
<!-- Generator: Adobe Illustrator 27.6.1, SVG Export Plug-In . SVG Version: 6.00 Build 0)  -->
<svg version="1.1" id="incognito" xmlns="http://www.w3.org/2000/svg" xmlns:xlink="http://www.w3.org/1999/xlink" x="0px" y="0px"
	 viewBox="0 0 512 512" style="enable-background:new 0 0 512 512;" xml:space="preserve">
<path d="M384,293.7c-55.9,0-102.2,41.9-109.1,96h-37.8c-6.9-54.1-53.2-96-109.1-96c-60.7,0-110,49.3-110,110s49.3,110,110,110
	c55.9,0,102.2-41.9,109.1-96h37.8c6.9,54.1,53.2,96,109.1,96c60.7,0,110-49.3,110-110S444.7,293.7,384,293.7z M128,485.7
	c-45.2,0-82-36.8-82-82s36.8-82,82-82s82,36.8,82,82S173.2,485.7,128,485.7z M384,485.7c-45.2,0-82-36.8-82-82s36.8-82,82-82
	s82,36.8,82,82S429.2,485.7,384,485.7z M32,255h88h272h88c7.7,0,14-6.3,14-14s-6.3-14-14-14h-77.4L353,50.1
	C344.5,20,316.8-1,285.6-1h-59.1c-31.2,0-59,21-67.4,51.1L109.4,227H32c-7.7,0-14,6.3-14,14S24.3,255,32,255z M186,57.6
	c5.1-18,21.7-30.6,40.4-30.6h59.1c18.7,0,35.4,12.6,40.4,30.6L355.6,163H156.4L186,57.6z M148.6,191h214.8l10.1,36H138.5L148.6,191z
	"/>
</svg>
