<?xml version="1.0" encoding="utf-8"?>
<!-- Generator: Adobe Illustrator 27.6.1, SVG Export Plug-In . SVG Version: 6.00 Build 0)  -->
<svg version="1.1" id="Слой_1" xmlns="http://www.w3.org/2000/svg" xmlns:xlink="http://www.w3.org/1999/xlink" x="0px" y="0px"
	 viewBox="0 0 512 512" style="enable-background:new 0 0 512 512;" xml:space="preserve">
<g>
	<path d="M401.2,366.8c-29.5,0-57.2-11.4-78.1-32.2L256,274.8l-67.1,59.9c-20.9,20.7-48.6,32.2-78.1,32.2
		c-29.6,0-57.4-11.5-78.3-32.4C11.5,313.4,0,285.6,0,256c0-29.6,11.5-57.4,32.4-78.3c20.9-20.9,48.8-32.5,78.4-32.5
		c29.4,0,57.2,11.4,78.1,32.2l67.1,59.9l67.1-59.9c20.9-20.7,48.6-32.2,78.1-32.2c29.6,0,57.4,11.5,78.3,32.4
		c20.9,20.9,32.5,48.8,32.5,78.4c0,29.6-11.5,57.4-32.4,78.3C458.6,355.3,430.8,366.8,401.2,366.8z M277,256l65.3,58.3l0.3,0.3
		c15.6,15.6,36.4,24.3,58.6,24.3c22.1,0,42.9-8.6,58.6-24.3c15.6-15.6,24.2-36.4,24.2-58.5c0-22.1-8.6-42.9-24.3-58.6
		c-15.6-15.6-36.4-24.2-58.5-24.2c-22.1,0-42.9,8.6-58.6,24.3l-0.6,0.5L277,256z M110.8,173.2c-22.1,0-42.9,8.6-58.6,24.3
		C36.6,213.1,28,233.9,28,256c0,22.1,8.6,42.9,24.3,58.6c15.6,15.6,36.4,24.2,58.5,24.2s42.9-8.6,58.6-24.3l0.6-0.5l65-58
		l-65.3-58.3l-0.3-0.3C153.7,181.8,132.9,173.2,110.8,173.2z"/>
</g>
</svg>
