<?xml version="1.0" encoding="utf-8"?>
<!-- Generator: Adobe Illustrator 27.6.1, SVG Export Plug-In . SVG Version: 6.00 Build 0)  -->
<svg version="1.1" id="Слой_1" xmlns="http://www.w3.org/2000/svg" xmlns:xlink="http://www.w3.org/1999/xlink" x="0px" y="0px"
	 viewBox="0 0 512 512" style="enable-background:new 0 0 512 512;" xml:space="preserve">
<path d="M270,360V232c0-7.7-6.3-14-14-14c-7.7,0-14,6.3-14,14v128c0,7.7,6.3,14,14,14C263.7,374,270,367.8,270,360z M270,168v-16
	c0-7.7-6.3-14-14-14c-7.7,0-14,6.3-14,14v16c0,7.7,6.3,14,14,14C263.7,182,270,175.8,270,168z M256,512c-68.4,0-132.7-26.6-181-75
	C26.6,388.7,0,324.4,0,256S26.6,123.3,75,75C123.3,26.6,187.6,0,256,0s132.7,26.6,181,75c48.4,48.4,75,112.6,75,181
	s-26.6,132.7-75,181S324.4,512,256,512z M256,28c-60.9,0-118.2,23.7-161.2,66.8S28,195.1,28,256c0,60.9,23.7,118.2,66.8,161.2
	S195.1,484,256,484c60.9,0,118.2-23.7,161.2-66.8S484,316.9,484,256c0-60.9-23.7-118.2-66.8-161.2S316.9,28,256,28z"/>
</svg>
