<?xml version="1.0" encoding="utf-8"?>
<!-- Generator: Adobe Illustrator 27.6.1, SVG Export Plug-In . SVG Version: 6.00 Build 0)  -->
<svg version="1.1" id="Слой_1" xmlns="http://www.w3.org/2000/svg" xmlns:xlink="http://www.w3.org/1999/xlink" x="0px" y="0px"
	 viewBox="0 0 512 512" style="enable-background:new 0 0 512 512;" xml:space="preserve">
<style type="text/css">
	.st0{fill-rule:evenodd;clip-rule:evenodd;}
</style>
<path class="st0" d="M480.8,78.9c-9.8-13.7-49-26.9-127.4-53.3l-14.9-5C297.6,6.9,277.2,0,256,0c-21.1,0-41.6,6.9-82.4,20.6l-14.9,5
	C80.2,52,41,65.2,31.2,78.9c-9.9,13.8-9.9,54.7-9.9,136.6v40.3c0,144.3,110.5,214.4,179.9,244.1C220,508,229.4,512,256,512
	s36-4,54.8-12.1c69.4-29.7,179.9-99.8,179.9-244.1v-40.3C490.7,133.6,490.7,92.7,480.8,78.9z M367.7,198L232,333.8
	c-2.7,2.7-6.3,4.1-9.9,4.1c-3.6,0-7.2-1.4-9.9-4.1l-67.9-67.9c-5.5-5.5-5.5-14.3,0-19.8s14.3-5.5,19.8,0l58,58L348,178.2
	c5.4-5.4,14.3-5.4,19.7,0C373.2,183.7,373.2,192.5,367.7,198z"/>
</svg>
