<?xml version="1.0" encoding="utf-8"?>
<!-- Generator: Adobe Illustrator 27.6.1, SVG Export Plug-In . SVG Version: 6.00 Build 0)  -->
<svg version="1.1" id="Слой_1" xmlns="http://www.w3.org/2000/svg" xmlns:xlink="http://www.w3.org/1999/xlink" x="0px" y="0px"
	 viewBox="0 0 512 512" style="enable-background:new 0 0 512 512;" xml:space="preserve">
<path d="M114,128c0-7.7,6.3-14,14-14h370c7.7,0,14,6.3,14,14s-6.3,14-14,14H128C120.3,142,114,135.7,114,128z M64,114H14
	c-7.7,0-14,6.3-14,14s6.3,14,14,14h50c7.7,0,14-6.3,14-14S71.7,114,64,114z M498,242H128c-7.7,0-14,6.3-14,14c0,7.7,6.3,14,14,14
	h370c7.7,0,14-6.3,14-14C512,248.3,505.7,242,498,242z M64,242H14c-7.7,0-14,6.3-14,14c0,7.7,6.3,14,14,14h50c7.7,0,14-6.3,14-14
	C78,248.3,71.7,242,64,242z M498,370H128c-7.7,0-14,6.3-14,14s6.3,14,14,14h370c7.7,0,14-6.3,14-14S505.7,370,498,370z M64,370H14
	c-7.7,0-14,6.3-14,14s6.3,14,14,14h50c7.7,0,14-6.3,14-14S71.7,370,64,370z"/>
</svg>
