<?xml version="1.0" encoding="utf-8"?>
<!-- Generator: Adobe Illustrator 27.6.1, SVG Export Plug-In . SVG Version: 6.00 Build 0)  -->
<svg version="1.1" id="Слой_1" xmlns="http://www.w3.org/2000/svg" xmlns:xlink="http://www.w3.org/1999/xlink" x="0px" y="0px"
	 viewBox="0 0 512 512" style="enable-background:new 0 0 512 512;" xml:space="preserve">
<path d="M402,194h-4v-52c0-37.9-14.8-73.6-41.6-100.4C329.6,14.8,293.9,0,256,0c-78.3,0-142,63.7-142,142v52h-4
	C49.3,194,0,243.3,0,304v98c0,60.7,49.3,110,110,110h292c60.7,0,110-49.3,110-110v-98C512,243.3,462.7,194,402,194z M142,142
	c0-62.9,51.1-114,114-114c30.4,0,59.1,11.9,80.6,33.4C358.1,82.9,370,111.6,370,142v52H142V142z M484,402c0,45.2-36.8,82-82,82H110
	c-45.2,0-82-36.8-82-82v-98c0-45.2,36.8-82,82-82h292c45.2,0,82,36.8,82,82V402z M256,275c-43,0-78,35-78,78s35,78,78,78
	c43,0,78-35,78-78S299,275,256,275z M256,403c-27.6,0-50-22.4-50-50s22.4-50,50-50s50,22.4,50,50S283.6,403,256,403z"/>
</svg>
