<?xml version="1.0" encoding="utf-8"?>
<!-- Generator: Adobe Illustrator 27.6.1, SVG Export Plug-In . SVG Version: 6.00 Build 0)  -->
<svg version="1.1" id="Слой_1" xmlns="http://www.w3.org/2000/svg" xmlns:xlink="http://www.w3.org/1999/xlink" x="0px" y="0px"
	 viewBox="0 0 512 512" style="enable-background:new 0 0 512 512;" xml:space="preserve">
<path d="M256,14c0-7.7,6.3-14,14-14h201.4c15.3,0,29.1,8.8,36,22.9c7.4,15,5.7,32.5-4.3,45.6l-76.3,99.7c-2.8,3.6-6.9,5.5-11.1,5.5
	c-3,0-6-0.9-8.5-2.9c-6.1-4.7-7.3-13.5-2.6-19.6l76.3-99.7c4.2-5.5,3.5-12,1.5-16.2c-1.1-2.2-4.3-7.3-10.9-7.3H270
	C262.3,28,256,21.7,256,14z M507.9,360.1c5.5,5.5,5.5,14.3,0,19.8c-2.7,2.7-6.3,4.1-9.9,4.1c-3.6,0-7.2-1.4-9.9-4.1L361.6,253.4
	l-19,24.8c-5.6,7.3-8.6,16.3-8.6,25.5V470c0,23.2-18.8,42-42,42h-72c-23.2,0-42-18.8-42-42V303.8c0-9.2-3.1-18.2-8.6-25.5L8.9,68.5
	C-1.2,55.3-2.8,37.8,4.6,22.9C11.5,8.8,25.3,0,40.6,0H142c0.5,0,0.9,0,1.4,0.1c0.2,0,0.4,0.1,0.6,0.1c0.3,0,0.5,0.1,0.8,0.1
	c0.2,0,0.4,0.1,0.7,0.2c0.2,0.1,0.4,0.1,0.7,0.2c0.2,0.1,0.4,0.1,0.6,0.2c0.2,0.1,0.4,0.1,0.6,0.2c0.2,0.1,0.4,0.2,0.6,0.3
	c0.2,0.1,0.4,0.2,0.7,0.3c0.2,0.1,0.4,0.2,0.5,0.3c0.2,0.1,0.4,0.2,0.6,0.4c0.2,0.1,0.4,0.3,0.6,0.4c0.2,0.1,0.3,0.2,0.5,0.4
	c0.4,0.3,0.7,0.6,1,0.9L507.9,360.1z M341.7,233.5L136.2,28H40.6c-6.6,0-9.8,5.1-10.9,7.3c-2.1,4.2-2.8,10.7,1.5,16.2l160.5,209.8
	c9.3,12.1,14.4,27.2,14.4,42.5V470c0,7.7,6.3,14,14,14h72c7.7,0,14-6.3,14-14V303.8c0-15.3,5.1-30.4,14.4-42.5L341.7,233.5z"/>
</svg>
