<?xml version="1.0" encoding="utf-8"?>
<!-- Generator: Adobe Illustrator 27.6.1, SVG Export Plug-In . SVG Version: 6.00 Build 0)  -->
<svg version="1.1" id="Слой_1" xmlns="http://www.w3.org/2000/svg" xmlns:xlink="http://www.w3.org/1999/xlink" x="0px" y="0px"
	 viewBox="0 0 512 512" style="enable-background:new 0 0 512 512;" xml:space="preserve">
<path d="M112,0C50.2,0,0,50.2,0,112s50.2,112,112,112s112-50.2,112-112S173.8,0,112,0z M112,160c-26.6,0-48-21.4-48-48
	s21.4-48,48-48s48,21.4,48,48S138.6,160,112,160z M400,288c-61.8,0-112,50.2-112,112s50.2,112,112,112s112-50.2,112-112
	S461.8,288,400,288z M400,448c-26.6,0-48-21.4-48-48s21.4-48,48-48s48,21.4,48,48S426.6,448,400,448z M45.1,512L0,466.9L466.9,0
	L512,45.1L45.1,512z"/>
</svg>
