<?xml version="1.0" encoding="utf-8"?>
<!-- Generator: Adobe Illustrator 27.6.1, SVG Export Plug-In . SVG Version: 6.00 Build 0)  -->
<svg version="1.1" id="Слой_1" xmlns="http://www.w3.org/2000/svg" xmlns:xlink="http://www.w3.org/1999/xlink" x="0px" y="0px"
	 viewBox="0 0 512 512" style="enable-background:new 0 0 512 512;" xml:space="preserve">
<path d="M402,0H110C49.3,0,0,49.3,0,110v292c0,60.7,49.3,110,110,110h292c60.7,0,110-49.3,110-110V110C512,49.3,462.7,0,402,0z
	 M484,402c0,45.2-36.8,82-82,82H110c-45.2,0-82-36.8-82-82V110c0-45.2,36.8-82,82-82h292c45.2,0,82,36.8,82,82V402z M350,256
	c0,7.7-6.3,14-14,14h-66v66c0,7.7-6.3,14-14,14c-7.7,0-14-6.3-14-14v-66h-66c-7.7,0-14-6.3-14-14c0-7.7,6.3-14,14-14h66v-66
	c0-7.7,6.3-14,14-14c7.7,0,14,6.3,14,14v66h66C343.7,242,350,248.3,350,256z"/>
</svg>
