<?xml version="1.0" encoding="utf-8"?>
<!-- Generator: Adobe Illustrator 27.6.1, SVG Export Plug-In . SVG Version: 6.00 Build 0)  -->
<svg version="1.1" id="Слой_1" xmlns="http://www.w3.org/2000/svg" xmlns:xlink="http://www.w3.org/1999/xlink" x="0px" y="0px"
	 viewBox="0 0 512 512" style="enable-background:new 0 0 512 512;" xml:space="preserve">
<path d="M256,234.7c141.4,0,256-47.8,256-106.7c0-58.9-114.6-106.7-256-106.7C114.6,21.3,0,69.1,0,128
	C0,186.9,114.6,234.7,256,234.7z M256,405.3c-97.7,0-184.1-23.5-238.6-59.8C6.3,357.5,0,370.4,0,384c0,58.9,114.6,106.7,256,106.7
	c141.4,0,256-47.8,256-106.7c0-13.6-6.3-26.5-17.4-38.4C440.1,381.8,353.7,405.3,256,405.3z M256,277.3
	c-97.7,0-184.1-23.5-238.6-59.8C6.3,229.5,0,242.4,0,256c0,58.9,114.6,106.7,256,106.7c141.4,0,256-47.8,256-106.7
	c0-13.6-6.3-26.5-17.4-38.4C440.1,253.8,353.7,277.3,256,277.3z"/>
</svg>
