<?xml version="1.0" encoding="utf-8"?>
<!-- Generator: Adobe Illustrator 27.6.1, SVG Export Plug-In . SVG Version: 6.00 Build 0)  -->
<svg version="1.1" id="Слой_1" xmlns="http://www.w3.org/2000/svg" xmlns:xlink="http://www.w3.org/1999/xlink" x="0px" y="0px"
	 viewBox="0 0 512 512" style="enable-background:new 0 0 512 512;" xml:space="preserve">
<path d="M512,256c0,68.4-26.6,132.7-75,181s-112.6,75-181,75s-132.7-26.6-181-75c-5.5-5.5-5.5-14.3,0-19.8s14.3-5.5,19.8,0
	C137.9,460.3,195.1,484,256,484s118.2-23.7,161.2-66.8c43.1-43,66.8-100.3,66.8-161.2s-23.7-118.2-66.8-161.2
	C374.2,51.7,316.9,28,256,28c-48.5,0-94.6,15-133.2,42.9h32.9c7.7,0,14,6.3,14,14s-6.3,14-14,14H84.9h-0.1c-0.4,0-0.8,0-1.2-0.1
	c-0.2,0-0.5-0.1-0.7-0.1s-0.5-0.1-0.7-0.1c-0.3,0-0.5-0.1-0.7-0.2s-0.4-0.1-0.6-0.2S80.4,98,80.2,98c-0.2-0.1-0.4-0.1-0.6-0.2
	s-0.4-0.2-0.6-0.3c-0.2-0.1-0.4-0.2-0.6-0.3c-0.2-0.1-0.4-0.2-0.6-0.4c-0.2-0.1-0.4-0.2-0.6-0.4c-0.2-0.1-0.4-0.3-0.6-0.5
	c-0.2-0.1-0.3-0.2-0.5-0.4c-0.4-0.3-0.7-0.6-1-0.9l0,0l0,0c-0.3-0.3-0.6-0.7-0.9-1c-0.1-0.2-0.2-0.3-0.4-0.5
	c-0.2-0.2-0.3-0.4-0.4-0.6s-0.2-0.4-0.4-0.6c-0.1-0.2-0.2-0.4-0.3-0.6c-0.1-0.2-0.2-0.4-0.3-0.6c-0.1-0.2-0.2-0.4-0.3-0.6
	c-0.1-0.2-0.2-0.4-0.2-0.6c-0.1-0.2-0.2-0.4-0.2-0.7c-0.1-0.2-0.1-0.4-0.2-0.6s-0.1-0.4-0.2-0.7c-0.1-0.3-0.1-0.5-0.1-0.8
	c0-0.2-0.1-0.4-0.1-0.6c0-0.5-0.1-0.9-0.1-1.4V14c0-7.7,6.3-14,14-14s14,6.3,14,14v39.8C143.6,18.9,198.4,0,256,0
	c68.4,0,132.7,26.6,181,75C485.4,123.3,512,187.6,512,256z"/>
</svg>
