<?xml version="1.0" encoding="utf-8"?>
<!-- Generator: Adobe Illustrator 27.6.1, SVG Export Plug-In . SVG Version: 6.00 Build 0)  -->
<svg version="1.1" id="Слой_1" xmlns="http://www.w3.org/2000/svg" xmlns:xlink="http://www.w3.org/1999/xlink" x="0px" y="0px"
	 viewBox="0 0 512 512" style="enable-background:new 0 0 512 512;" xml:space="preserve">
<path d="M359.9,207.8c-83.9,0-152.1,68.2-152.1,152.1S276,512,359.9,512c83.9,0,152.1-68.2,152.1-152.1S443.8,207.8,359.9,207.8z
	 M359.9,482.9c-67.8,0-123-55.2-123-123s55.2-123,123-123c67.8,0,123,55.2,123,123S427.7,482.9,359.9,482.9z M359.9,243.2
	c-64.4,0-116.7,52.4-116.7,116.7s52.4,116.7,116.7,116.7c64.4,0,116.7-52.4,116.7-116.7S424.3,243.2,359.9,243.2z M359.9,447.5
	c-48.3,0-87.6-39.3-87.6-87.6s39.3-87.6,87.6-87.6c48.3,0,87.6,39.3,87.6,87.6S408.2,447.5,359.9,447.5z M236.2,142.2
	c32.5-32.5,32.5-85.4,0-117.8s-85.4-32.5-117.8,0c-8.7,8.7-15,18.8-19,29.5C88.3,58.1,78.2,64.6,69.8,73
	c-7.9,7.9-14.1,17.2-18.2,27.3c-10.1,4.2-19.4,10.4-27.2,18.1c-32.5,32.5-32.5,85.4,0,117.8c16.2,16.2,37.6,24.4,58.9,24.4
	c21.3,0,42.7-8.1,58.9-24.4c7.8-7.8,14-17.1,18.2-27.3c9.9-4.1,19.2-10.1,27.2-18.1c8.4-8.4,14.9-18.5,19.1-29.6
	C217.5,157.2,227.6,150.9,236.2,142.2z M177.3,29.1c13.9,0,27.8,5.3,38.3,15.9c21.1,21.1,21.1,55.5,0,76.7s-55.5,21.1-76.7,0
	s-21.1-55.5,0-76.7C149.5,34.4,163.4,29.1,177.3,29.1z M83.3,231.5c-13.9,0-27.8-5.3-38.3-15.9c-21.1-21.1-21.1-55.5,0-76.7
	c0.2-0.2,0.4-0.4,0.7-0.6c1.5,19.8,9.9,38.3,24.1,52.5c14.6,14.6,33.4,22.6,52.5,24.1c-0.2,0.2-0.4,0.5-0.7,0.7
	C111.1,226.2,97.2,231.5,83.3,231.5L83.3,231.5z M145,183.7c-0.2,0.1-0.4,0.1-0.7,0.2c-5,1.5-10.3,2.3-15.7,2.3
	c-14.5,0-28.1-5.6-38.3-15.9c-10.2-10.2-15.9-23.9-15.9-38.3c0-5.4,0.8-10.6,2.3-15.7c0.1-0.2,0.2-0.4,0.2-0.7
	c2.6-8.2,7.1-15.7,13.4-22c1.3-1.3,2.6-2.4,4-3.6c1.5,19,9.5,37.7,24.1,52.2c14.5,14.5,33.2,22.5,52.2,24.1c-1.1,1.4-2.3,2.7-3.6,4
	C160.8,176.5,153.2,181.1,145,183.7L145,183.7z M143.4,117.2c9.1,9.1,21.1,14,33.9,14c12.8,0,24.9-5,33.9-14
	c18.7-18.7,18.7-49.1,0-67.8c-9.1-9.1-21.1-14-33.9-14c-12.8,0-24.9,5-33.9,14C124.7,68.1,124.7,98.5,143.4,117.2z M164,70
	c3.6-3.6,8.3-5.5,13.3-5.5c5,0,9.8,2,13.3,5.5c7.3,7.3,7.3,19.3,0,26.7c-3.6,3.6-8.3,5.5-13.3,5.5c-5,0-9.8-2-13.3-5.5
	C156.6,89.3,156.6,77.3,164,70z M290.3,64.5c2.6-7.6,10.8-11.7,18.4-9.1c36.5,12.3,68.2,34.6,92,64.1l0.5-2.9
	c1.4-7.9,8.9-13.2,16.9-11.8c7.9,1.4,13.2,8.9,11.8,16.9l-6.8,38.7c0,0.1,0,0.1,0,0.2c0,0.1-0.1,0.2-0.1,0.4c-0.1,0.3-0.2,0.7-0.2,1
	c0,0.1,0,0.1-0.1,0.2c-0.1,0.4-0.2,0.8-0.4,1.1c0,0,0,0.1,0,0.1c-0.2,0.4-0.4,0.8-0.6,1.2c0,0,0,0,0,0c-0.2,0.4-0.4,0.8-0.7,1.2
	c0,0,0,0,0,0c-2.6,4-7.2,6.6-12.2,6.6c-0.8,0-1.7-0.1-2.5-0.2c-0.2,0-0.3-0.1-0.5-0.1l-38.2-6.7c-7.9-1.4-13.2-8.9-11.8-16.9
	c1.4-7.9,8.9-13.2,16.9-11.8l5.3,0.9c-20.4-25.1-47.4-44-78.5-54.6C291.8,80.4,287.8,72.1,290.3,64.5L290.3,64.5z M170.8,410.9
	c0,0.2,0,0.5,0,0.7c0,0.2,0,0.5-0.1,0.7c0,0.3-0.1,0.5-0.1,0.8c0,0.2-0.1,0.4-0.1,0.6c-0.1,0.3-0.1,0.6-0.2,0.9
	c0,0.2-0.1,0.3-0.1,0.5c-0.1,0.3-0.2,0.6-0.3,0.9c-0.1,0.1-0.1,0.3-0.1,0.4c-0.1,0.4-0.3,0.7-0.5,1c0,0.1-0.1,0.1-0.1,0.2
	c0,0,0,0.1-0.1,0.1c-0.1,0.2-0.2,0.4-0.3,0.6c-0.1,0.2-0.2,0.3-0.3,0.5c-0.1,0.2-0.2,0.3-0.3,0.5c-0.2,0.2-0.3,0.4-0.5,0.7
	c-0.2,0.2-0.3,0.4-0.5,0.6c-0.1,0.2-0.3,0.3-0.4,0.5c-0.1,0.1-0.3,0.3-0.5,0.4c-0.1,0.1-0.3,0.2-0.4,0.4c-0.3,0.3-0.7,0.6-1.1,0.8
	c-0.1,0.1-0.1,0.1-0.2,0.2c-0.2,0.2-0.5,0.3-0.7,0.4c-0.1,0.1-0.2,0.1-0.2,0.1c-0.7,0.4-1.5,0.8-2.4,1.1c-0.1,0-0.2,0.1-0.3,0.1
	c-0.5,0.2-0.9,0.3-1.4,0.4c-0.1,0-0.2,0.1-0.3,0.1c-0.1,0-0.2,0.1-0.3,0.1c-0.1,0-0.2,0-0.3,0l-38.4,6.8c-0.9,0.2-1.7,0.2-2.5,0.2
	c-6.9,0-13.1-5-14.3-12c-1.4-7.9,3.9-15.5,11.8-16.9l2.9-0.5c-29.7-23.9-52-55.8-64.4-92.5c-2.6-7.6,1.5-15.9,9.2-18.4
	c7.6-2.6,15.9,1.5,18.4,9.2c10.5,31.3,29.6,58.6,54.9,79l-1-5.4c-1.4-7.9,3.9-15.5,11.8-16.9c7.9-1.4,15.5,3.9,16.9,11.8l6.8,38.7
	c0,0,0,0,0,0c0,0.1,0,0.3,0.1,0.4c0,0.3,0.1,0.6,0.1,0.8c0,0.1,0,0.1,0,0.2c0,0.1,0,0.3,0,0.4C170.7,410.4,170.7,410.6,170.8,410.9
	L170.8,410.9z"/>
</svg>
