<?xml version="1.0" encoding="utf-8"?>
<!-- Generator: Adobe Illustrator 27.6.1, SVG Export Plug-In . SVG Version: 6.00 Build 0)  -->
<svg version="1.1" id="Слой_1" xmlns="http://www.w3.org/2000/svg" xmlns:xlink="http://www.w3.org/1999/xlink" x="0px" y="0px"
	 viewBox="0 0 512 512" style="enable-background:new 0 0 512 512;" xml:space="preserve">
<path d="M479.8,136L376,32.2C355.2,11.4,327.6,0,298.2,0H110C49.3,0,0,49.3,0,110v292c0,60.7,49.3,110,110,110h292
	c60.7,0,110-49.3,110-110V213.8C512,184.4,500.6,156.8,479.8,136z M284.2,28v86c0,7.7-6.3,14-14,14H138c-7.7,0-14-6.3-14-14V28
	H284.2z M124,484V333c0-7.2,5.8-13,13-13h237c7.7,0,14,6.3,14,14v150H124z M484,402c0,40.4-29.4,74.1-68,80.8V334
	c0-23.2-18.8-42-42-42H137c-22.6,0-41,18.4-41,41v149.8c-38.6-6.7-68-40.3-68-80.8V110c0-40.4,29.4-74.1,68-80.8V114
	c0,23.2,18.8,42,42,42h132.2c23.2,0,42-18.8,42-42V29.2c16.6,2.8,31.8,10.7,44,22.8L460,155.8c15.5,15.5,24,36.1,24,58V402z"/>
</svg>
