<?xml version="1.0" encoding="utf-8"?>
<!-- Generator: Adobe Illustrator 27.6.1, SVG Export Plug-In . SVG Version: 6.00 Build 0)  -->
<svg version="1.1" id="Слой_1" xmlns="http://www.w3.org/2000/svg" xmlns:xlink="http://www.w3.org/1999/xlink" x="0px" y="0px"
	 viewBox="0 0 512 512" style="enable-background:new 0 0 512 512;" xml:space="preserve">
<path d="M507.9,488.1l-133-133C409.2,316,428,266.5,428,214c0-57.2-22.3-110.9-62.7-151.3C324.9,22.3,271.2,0,214,0
	C156.8,0,103.1,22.3,62.7,62.7C22.3,103.1,0,156.8,0,214c0,57.2,22.3,110.9,62.7,151.3C103.1,405.7,156.8,428,214,428
	c52.5,0,102-18.8,141.1-53.1l133,133c2.7,2.7,6.3,4.1,9.9,4.1s7.2-1.4,9.9-4.1C513.4,502.4,513.4,493.6,507.9,488.1z M28,214
	c0-102.6,83.4-186,186-186s186,83.4,186,186s-83.4,186-186,186S28,316.6,28,214z"/>
</svg>
