<?xml version="1.0" encoding="utf-8"?>
<!-- Generator: Adobe Illustrator 27.6.1, SVG Export Plug-In . SVG Version: 6.00 Build 0)  -->
<svg version="1.1" id="Слой_1" xmlns="http://www.w3.org/2000/svg" xmlns:xlink="http://www.w3.org/1999/xlink" x="0px" y="0px"
	 viewBox="0 0 512 512" style="enable-background:new 0 0 512 512;" xml:space="preserve">
<g>
	<path d="M280.6,351.7c-44.2,0-80.2,36-80.2,80.2c0,44.2,36,80.2,80.2,80.2c44.2,0,80.2-36,80.2-80.2
		C360.8,387.6,324.8,351.7,280.6,351.7z M280.6,484c-28.8,0-52.2-23.4-52.2-52.2c0-28.8,23.4-52.2,52.2-52.2
		c28.8,0,52.2,23.4,52.2,52.2C332.8,460.6,309.4,484,280.6,484z"/>
	<path d="M280.6,385.7c-25.4,0-46.1,20.7-46.1,46.1c0,25.4,20.7,46.1,46.1,46.1c25.4,0,46.1-20.7,46.1-46.1
		C326.7,406.4,306,385.7,280.6,385.7z M280.6,450c-10,0-18.1-8.1-18.1-18.1c0-10,8.1-18.1,18.1-18.1c10,0,18.1,8.1,18.1,18.1
		C298.7,441.8,290.6,450,280.6,450z"/>
	<path d="M476.5,270.8c0.2-0.2,0.3-0.4,0.4-0.5c0.1-0.2,0.3-0.3,0.4-0.5c0.2-0.2,0.3-0.4,0.4-0.6c0.1-0.2,0.2-0.4,0.3-0.5
		c0.1-0.2,0.2-0.4,0.4-0.6c0.1-0.2,0.2-0.4,0.3-0.6c0.1-0.2,0.2-0.4,0.3-0.6c0.1-0.2,0.2-0.4,0.2-0.6c0.1-0.2,0.1-0.4,0.2-0.6
		c0.1-0.2,0.1-0.5,0.2-0.7c0.1-0.2,0.1-0.4,0.1-0.6c0-0.2,0.1-0.5,0.1-0.7c0-0.2,0.1-0.5,0.1-0.7c0-0.2,0-0.4,0.1-0.7
		c0-0.3,0-0.5,0-0.8c0-0.1,0-0.3,0-0.4c0-0.1,0-0.2,0-0.3c0,0,0-0.1,0-0.1c-1.4-28.4-19.2-62.1-51.6-97.7
		c-25.3-27.7-57.6-54.6-94.6-78.7l8-13.8c9.6-16.6,3.9-37.8-12.7-47.4c-8-4.6-17.3-5.9-26.3-3.5c-8.9,2.4-16.4,8.1-21,16.2l-8,13.8
		c-39.4-19.9-78.8-34.5-115.4-42.5c-47-10.3-85.2-8.9-110.4,4.1c0,0,0,0-0.1,0c-0.1,0.1-0.2,0.1-0.3,0.1c-0.1,0.1-0.2,0.1-0.4,0.2
		c-0.2,0.1-0.4,0.2-0.7,0.4c-0.2,0.1-0.4,0.2-0.6,0.4c-0.2,0.1-0.4,0.3-0.5,0.4c-0.2,0.2-0.4,0.3-0.5,0.5c-0.2,0.1-0.3,0.3-0.5,0.4
		c-0.2,0.2-0.3,0.3-0.5,0.5c-0.1,0.2-0.3,0.3-0.4,0.5c-0.1,0.2-0.3,0.3-0.4,0.5c-0.1,0.2-0.3,0.4-0.4,0.6c-0.1,0.2-0.2,0.3-0.3,0.5
		c-0.1,0.2-0.3,0.4-0.4,0.6c-0.1,0.2-0.2,0.4-0.3,0.6c-0.1,0.2-0.2,0.4-0.3,0.7c-0.1,0.2-0.2,0.4-0.3,0.6c-0.1,0.2-0.2,0.4-0.2,0.6
		c-0.1,0.3-0.1,0.5-0.2,0.7c0,0.1-0.1,0.3-0.1,0.4c0,0,0,0.1,0,0.2c-0.1,0.3-0.1,0.5-0.1,0.8c0,0.2-0.1,0.4-0.1,0.6
		c0,0.3,0,0.5-0.1,0.8c0,0.2,0,0.4,0,0.6c0,0.2,0,0.5,0,0.7c0,0.2,0,0.4,0,0.6c0,0.2,0,0.5,0.1,0.7c0,0.2,0,0.4,0.1,0.6
		c0,0.2,0.1,0.4,0.1,0.7c0,0.2,0.1,0.4,0.2,0.7c0.1,0.2,0.1,0.4,0.2,0.6c0.1,0.2,0.1,0.5,0.2,0.7c0.1,0.2,0.2,0.4,0.2,0.5
		c0.1,0.2,0.2,0.5,0.3,0.7c0,0,0,0.1,0.1,0.2c0.1,0.1,0.1,0.3,0.2,0.4c0.1,0.2,0.2,0.4,0.4,0.6c0.1,0.2,0.3,0.4,0.4,0.6
		c0.1,0.2,0.3,0.4,0.4,0.5c0.1,0.2,0.3,0.4,0.5,0.6c0.1,0.2,0.3,0.3,0.4,0.5c0.2,0.2,0.3,0.4,0.5,0.5c0.1,0.2,0.3,0.3,0.5,0.4
		c0.2,0.2,0.4,0.3,0.5,0.4c0.2,0.1,0.4,0.3,0.5,0.4c0.2,0.1,0.4,0.2,0.5,0.4c0.2,0.1,0.4,0.3,0.6,0.4c0.2,0.1,0.4,0.2,0.6,0.3
		c0.2,0.1,0.4,0.2,0.7,0.3c0.2,0.1,0.4,0.2,0.6,0.2c0.2,0.1,0.4,0.2,0.6,0.2c0.2,0.1,0.5,0.2,0.7,0.2c0.1,0,0.3,0.1,0.4,0.1
		c43.1,10.3,111.6,40.1,184,79.8L36.7,460c-4.6,8-5.9,17.4-3.5,26.3s8.1,16.4,16.2,21.1c5.4,3.1,11.4,4.6,17.3,4.6
		c12,0,23.7-6.2,30.1-17.3l198-343.1c70.5,42.9,130.7,87.3,161.1,119.5c0.1,0.1,0.1,0.1,0.2,0.2c0.2,0.2,0.4,0.4,0.6,0.6
		c0.2,0.1,0.3,0.3,0.5,0.4c0.2,0.2,0.4,0.3,0.6,0.5c0.2,0.1,0.3,0.3,0.5,0.4c0.2,0.1,0.4,0.3,0.6,0.4c0.2,0.1,0.4,0.2,0.5,0.3
		c0.2,0.1,0.5,0.2,0.7,0.3c0.2,0.1,0.3,0.2,0.5,0.2c0.3,0.1,0.7,0.3,1,0.4c0.1,0,0.2,0.1,0.3,0.1c1.3,0.4,2.7,0.6,4.1,0.6h0
		c0.2,0,0.4,0,0.6,0c0.1,0,0.2,0,0.3,0c0.3,0,0.5,0,0.8-0.1c0.2,0,0.4,0,0.6-0.1c0.2,0,0.5-0.1,0.7-0.2c0.2,0,0.4-0.1,0.6-0.1
		c0.2-0.1,0.5-0.1,0.7-0.2c0.2-0.1,0.4-0.1,0.6-0.2c0.2-0.1,0.4-0.2,0.7-0.3c0.2-0.1,0.4-0.2,0.6-0.3c0.2-0.1,0.4-0.2,0.6-0.3
		c0.2-0.1,0.4-0.2,0.5-0.3c0.2-0.1,0.4-0.2,0.6-0.4c0.2-0.1,0.4-0.3,0.5-0.4c0.2-0.1,0.3-0.3,0.5-0.4c0.2-0.1,0.4-0.3,0.5-0.5
		c0.1,0,0.1-0.1,0.1-0.1c0.1-0.1,0.2-0.2,0.3-0.3C476.1,271.2,476.3,271,476.5,270.8L476.5,270.8z M305.9,49.6
		c1.2-2.1,3.1-2.8,4-3.1c1-0.3,3-0.5,5.1,0.7c2.1,1.2,2.8,3.1,3.1,4c0.3,1,0.5,3-0.7,5.1l-7.5,13c-1.9-1.1-3.8-2.2-5.7-3.3
		c-1.9-1.1-3.9-2.2-5.8-3.3L305.9,49.6L305.9,49.6z M272.1,80.1L272.1,80.1C272.1,80.1,272.2,80.1,272.1,80.1
		c6,3.2,12.1,6.5,18.1,10c6,3.5,11.9,7,17.5,10.5c0.1,0,0.1,0.1,0.2,0.1c0,0,0,0,0,0c59,36.8,100.7,76.9,123.5,110.9
		c-35.6-28.5-82.4-60.4-134.7-91.5l0,0h0c-5.9-3.5-11.8-7-17.8-10.4c-6-3.5-12-6.9-18-10.2l0,0c0,0,0,0,0,0
		c-53.1-29.7-104-54.3-146.5-70.9C155.3,31.3,210.8,47.3,272.1,80.1L272.1,80.1z M72.5,480.7c-1.2,2.1-3.1,2.8-4,3.1
		c-1,0.3-3,0.5-5.1-0.7c-2.1-1.2-2.8-3.1-3.1-4c-0.3-1-0.5-3,0.7-5.1l198.2-343.4c1.9,1.1,3.9,2.2,5.8,3.3c1.9,1.1,3.8,2.2,5.7,3.3
		L72.5,480.7z"/>
</g>
</svg>
