<?xml version="1.0" encoding="utf-8"?>
<!-- Generator: Adobe Illustrator 27.6.1, SVG Export Plug-In . SVG Version: 6.00 Build 0)  -->
<svg version="1.1" id="Слой_1" xmlns="http://www.w3.org/2000/svg" xmlns:xlink="http://www.w3.org/1999/xlink" x="0px" y="0px"
	 viewBox="0 0 512 512" style="enable-background:new 0 0 512 512;" xml:space="preserve">
<path d="M256,28c15.8,0,32.6,5.4,72.5,18.8l1.1,0.4l14.9,5c35.6,12,63.7,21.5,83.6,29.2c20.5,8,27.5,12.3,29.8,14
	c0.9,2.7,2.8,10.6,3.8,32.3c1,21.1,1,50.6,1,87.8v40.3c0,30.1-5.4,58.4-16.2,84c-9.3,22.3-22.9,43.2-40.3,62
	c-33.9,36.6-76.6,59.6-106.4,72.3l0,0l0,0c-17.5,7.5-22.8,9.8-43.7,9.8s-26.2-2.3-43.7-9.8l0,0l0,0c-29.9-12.8-72.6-35.7-106.4-72.3
	c-17.4-18.8-31-39.7-40.3-62c-10.7-25.6-16.2-53.9-16.2-84v-40.3c0-37.3,0-66.7,1-87.8c1-21.7,2.9-29.6,3.8-32.3
	c2.3-1.8,9.3-6.1,29.8-14c20-7.7,48.1-17.2,83.7-29.2l14.9-5l0.3-0.1C220.6,34.4,239.5,28,256,28 M256,0c-21.1,0-41.6,6.9-82.4,20.6
	l-14.9,5C80.2,52,41,65.2,31.2,78.9c-9.9,13.8-9.9,54.7-9.9,136.6v40.3c0,144.3,110.5,214.4,179.9,244.1C220,508,229.4,512,256,512
	s36-4,54.8-12.1c69.4-29.7,179.9-99.8,179.9-244.1v-40.3c0-81.9,0-122.8-9.9-136.6c-9.8-13.7-49-26.9-127.4-53.3l-14.9-5
	C297.6,6.9,277.2,0,256,0L256,0z M367.7,178.2c5.5,5.5,5.5,14.3,0,19.8L232,333.8c-2.7,2.7-6.3,4.1-9.9,4.1s-7.2-1.4-9.9-4.1
	l-67.9-67.9c-5.5-5.5-5.5-14.3,0-19.8s14.3-5.5,19.8,0l58,58L348,178.2C353.4,172.8,362.3,172.8,367.7,178.2z"/>
</svg>
