<?xml version="1.0" encoding="utf-8"?>
<!-- Generator: Adobe Illustrator 27.6.1, SVG Export Plug-In . SVG Version: 6.00 Build 0)  -->
<svg version="1.1" id="Слой_1" xmlns="http://www.w3.org/2000/svg" xmlns:xlink="http://www.w3.org/1999/xlink" x="0px" y="0px"
	 viewBox="0 0 512 512" style="enable-background:new 0 0 512 512;" xml:space="preserve">
<path d="M512,380L512,380C512,380,512,380,512,380c0,0.5,0,0.9-0.1,1.4c0,0.3-0.1,0.6-0.1,0.8c0,0.2,0,0.3-0.1,0.5
	c-0.1,0.4-0.2,0.8-0.3,1.1c0,0.1,0,0.1,0,0.2c-0.7,2.4-2,4.5-3.8,6.1l-85.8,85.8c-2.7,2.7-6.3,4.1-9.9,4.1c-3.6,0-7.2-1.4-9.9-4.1
	c-5.5-5.5-5.5-14.3,0-19.8l62.1-62.1h-49.4c-26.2,0-50.8-10.2-69.3-28.7L146.7,166.5c-13.2-13.2-30.8-20.5-49.5-20.5H14
	c-7.7,0-14-6.3-14-14s6.3-14,14-14h83.2c26.2,0,50.8,10.2,69.3,28.7l198.8,198.8c13.2,13.2,30.8,20.5,49.5,20.5h49.4l-62.1-62.1
	c-5.5-5.5-5.5-14.3,0-19.8s14.3-5.5,19.8,0l85.8,85.8c1.8,1.7,3.1,3.8,3.8,6.1c0,0.1,0,0.1,0,0.2c0.1,0.4,0.2,0.7,0.3,1.1
	c0,0.2,0,0.3,0.1,0.5c0,0.3,0.1,0.6,0.1,0.8C512,379.1,512,379.5,512,380z M512,132c0-0.1,0-0.2,0-0.3c0-0.3,0-0.7-0.1-1
	c0-0.4-0.1-0.8-0.2-1.2c0,0,0-0.1,0-0.1c-0.6-3-2.1-5.6-4.3-7.6l-85.6-85.6c-5.5-5.5-14.3-5.5-19.8,0s-5.5,14.3,0,19.8l62.1,62.1
	h-49.4c-26.2,0-50.8,10.2-69.3,28.7l-51.4,51.4c-5.5,5.5-5.5,14.3,0,19.8c2.7,2.7,6.3,4.1,9.9,4.1s7.2-1.4,9.9-4.1l51.4-51.4
	c13-13,31.1-20.5,49.5-20.5h49.4l-62.1,62.1c-5.5,5.5-5.5,14.3,0,19.8c2.7,2.7,6.3,4.1,9.9,4.1c3.6,0,7.2-1.4,9.9-4.1l85.9-85.9
	c1-1,1.9-2.2,2.6-3.4c0-0.1,0.1-0.2,0.1-0.2c0.2-0.3,0.3-0.7,0.5-1c0.1-0.1,0.1-0.3,0.1-0.4c0.1-0.3,0.2-0.6,0.3-0.9
	c0.1-0.2,0.1-0.4,0.1-0.6c0.1-0.2,0.1-0.5,0.2-0.7c0.1-0.3,0.1-0.6,0.1-0.8c0-0.2,0.1-0.3,0.1-0.5C512,132.9,512,132.5,512,132
	C512,132,512,132,512,132z M198.1,294.1l-51.4,51.4c-13,13-31.1,20.5-49.5,20.5H14c-7.7,0-14,6.3-14,14s6.3,14,14,14h83.2
	c26.2,0,50.8-10.2,69.3-28.7l51.4-51.4c5.5-5.5,5.5-14.3,0-19.8C212.4,288.6,203.6,288.6,198.1,294.1z"/>
</svg>
