<?xml version="1.0" encoding="utf-8"?>
<!-- Generator: Adobe Illustrator 27.6.1, SVG Export Plug-In . SVG Version: 6.00 Build 0)  -->
<svg version="1.1" id="sort-alt" xmlns="http://www.w3.org/2000/svg" xmlns:xlink="http://www.w3.org/1999/xlink" x="0px" y="0px"
	 viewBox="0 0 512 512" style="enable-background:new 0 0 512 512;" xml:space="preserve">
<path d="M251.9,306c-5.5-5.5-14.3-5.5-19.8,0L170,368.1V110c0-7.7-6.3-14-14-14s-14,6.3-14,14v258.1L79.9,306
	c-5.5-5.5-14.3-5.5-19.8,0s-5.5,14.3,0,19.8l86,86c0.3,0.3,0.7,0.6,1,0.9c0.2,0.1,0.3,0.2,0.5,0.4c0.2,0.2,0.4,0.3,0.6,0.5
	c0.2,0.1,0.4,0.2,0.6,0.4c0.2,0.1,0.4,0.2,0.6,0.3c0.2,0.1,0.4,0.2,0.6,0.3c0.2,0.1,0.4,0.2,0.6,0.3c0.2,0.1,0.4,0.2,0.6,0.2
	c0.2,0.1,0.4,0.2,0.7,0.2c0.2,0.1,0.4,0.1,0.6,0.2c0.2,0.1,0.5,0.1,0.7,0.2c0.2,0,0.5,0.1,0.7,0.1s0.4,0.1,0.6,0.1
	c0.5,0,0.9,0.1,1.4,0.1s0.9,0,1.4-0.1c0.2,0,0.4-0.1,0.6-0.1s0.5-0.1,0.7-0.1s0.5-0.1,0.7-0.2s0.4-0.1,0.6-0.2s0.5-0.2,0.7-0.2
	c0.2-0.1,0.4-0.1,0.6-0.2s0.4-0.2,0.6-0.3c0.2-0.1,0.4-0.2,0.6-0.3c0.2-0.1,0.4-0.2,0.6-0.3c0.2-0.1,0.4-0.2,0.6-0.4
	c0.2-0.1,0.4-0.3,0.6-0.5c0.2-0.1,0.3-0.2,0.5-0.3c0.4-0.3,0.7-0.6,1-0.9l86-86C257.4,320.3,257.4,311.5,251.9,306z"/>
<path d="M451.9,206c-5.5,5.5-14.3,5.5-19.8,0L370,143.9V402c0,7.7-6.3,14-14,14s-14-6.3-14-14V143.9L279.9,206
	c-5.5,5.5-14.3,5.5-19.8,0s-5.5-14.3,0-19.8l86-86c0.3-0.3,0.7-0.6,1-0.9c0.2-0.1,0.3-0.2,0.5-0.4c0.2-0.2,0.4-0.3,0.6-0.5
	c0.2-0.1,0.4-0.2,0.6-0.4c0.2-0.1,0.4-0.2,0.6-0.3c0.2-0.1,0.4-0.2,0.6-0.3c0.2-0.1,0.4-0.2,0.6-0.3c0.2-0.1,0.4-0.2,0.6-0.2
	c0.2-0.1,0.4-0.2,0.7-0.2c0.2-0.1,0.4-0.1,0.6-0.2s0.5-0.1,0.7-0.2c0.2,0,0.5-0.1,0.7-0.1s0.4-0.1,0.6-0.1c0.5,0,0.9-0.1,1.4-0.1
	s0.9,0,1.4,0.1c0.2,0,0.4,0.1,0.6,0.1s0.5,0.1,0.7,0.1s0.5,0.1,0.7,0.2s0.4,0.1,0.6,0.2s0.5,0.2,0.7,0.2c0.2,0.1,0.4,0.1,0.6,0.2
	s0.4,0.2,0.6,0.3c0.2,0.1,0.4,0.2,0.6,0.3c0.2,0.1,0.4,0.2,0.6,0.3c0.2,0.1,0.4,0.2,0.6,0.4c0.2,0.1,0.4,0.3,0.6,0.5
	c0.2,0.1,0.3,0.2,0.5,0.3c0.4,0.3,0.7,0.6,1,0.9l86,86C457.4,191.7,457.4,200.5,451.9,206z"/>
</svg>
