<?xml version="1.0" encoding="utf-8"?>
<!-- Generator: Adobe Illustrator 27.6.1, SVG Export Plug-In . SVG Version: 6.00 Build 0)  -->
<svg version="1.1" id="Слой_1" xmlns="http://www.w3.org/2000/svg" xmlns:xlink="http://www.w3.org/1999/xlink" x="0px" y="0px"
	 viewBox="0 0 512 512" style="enable-background:new 0 0 512 512;" xml:space="preserve">
<g>
	<path d="M256,512c-68.4,0-132.7-26.6-181-75C26.6,388.7,0,324.4,0,256c0-68.4,26.6-132.7,75-181C123.3,26.6,187.6,0,256,0
		c68.4,0,132.7,26.6,181,75c5.5,5.5,5.5,14.3,0,19.8c-5.5,5.5-14.3,5.5-19.8,0C374.1,51.7,316.9,28,256,28
		c-60.9,0-118.2,23.7-161.2,66.8S28,195.1,28,256s23.7,118.2,66.8,161.2C137.8,460.3,195.1,484,256,484s118.2-23.7,161.2-66.8
		C460.3,374.2,484,316.9,484,256c0-7.7,6.3-14,14-14s14,6.3,14,14c0,68.4-26.6,132.7-75,181S324.4,512,256,512z"/>
</g>
</svg>
