<?xml version="1.0" encoding="utf-8"?>
<!-- Generator: Adobe Illustrator 27.6.1, SVG Export Plug-In . SVG Version: 6.00 Build 0)  -->
<svg version="1.1" id="Слой_1" xmlns="http://www.w3.org/2000/svg" xmlns:xlink="http://www.w3.org/1999/xlink" x="0px" y="0px"
	 viewBox="0 0 512 512" style="enable-background:new 0 0 512 512;" xml:space="preserve">
<path d="M402,512H110C49.3,512,0,462.7,0,402V110C0,49.3,49.3,0,110,0h292c60.7,0,110,49.3,110,110v292C512,462.7,462.7,512,402,512
	z M110,28c-45.2,0-82,36.8-82,82v292c0,45.2,36.8,82,82,82h292c45.2,0,82-36.8,82-82V110c0-45.2-36.8-82-82-82H110z M141.4,322.5
	l70.7-70.7c5.5-5.5,14.3-5.5,19.8,0l28.3,28.3c7.9,7.9,18.5,12.3,29.7,12.3s21.8-4.4,29.7-12.3l70.7-70.7c5.5-5.5,5.5-14.3,0-19.8
	c-5.5-5.5-14.3-5.5-19.8,0l-70.7,70.7c-2.6,2.6-6.2,4.1-9.9,4.1s-7.3-1.5-9.9-4.1L251.8,232c-7.9-7.9-18.5-12.3-29.7-12.3
	c-11.2,0-21.8,4.4-29.7,12.3l-70.7,70.7c-5.5,5.5-5.5,14.3,0,19.8c2.7,2.7,6.3,4.1,9.9,4.1S138.7,325.2,141.4,322.5z"/>
</svg>
