<?xml version="1.0" encoding="utf-8"?>
<!-- Generator: Adobe Illustrator 27.6.1, SVG Export Plug-In . SVG Version: 6.00 Build 0)  -->
<svg version="1.1" id="Слой_1" xmlns="http://www.w3.org/2000/svg" xmlns:xlink="http://www.w3.org/1999/xlink" x="0px" y="0px"
	 viewBox="0 0 512 512" style="enable-background:new 0 0 512 512;" xml:space="preserve">
<path d="M499.5,231.7L288.7,21C275.2,7.4,257.2,0,238.1,0H42.8C19.2,0,0,19.2,0,42.8v195.4c0,19.1,7.4,37.1,21,50.6l210.8,210.8
	c8.3,8.3,19.3,12.5,30.2,12.5c11,0,21.9-4.2,30.2-12.5l207.3-207.3C516.1,275.5,516.1,248.4,499.5,231.7z M479.7,272.4L272.4,479.7
	c-5.8,5.8-15.1,5.8-20.9,0L40.8,268.9c-8.2-8.2-12.8-19.2-12.8-30.8V42.8C28,34.6,34.6,28,42.8,28h195.4c11.6,0,22.6,4.5,30.8,12.8
	l210.8,210.8C485.4,257.3,485.4,266.6,479.7,272.4z M138,92c-12.3,0-23.8,4.8-32.5,13.5c0,0,0,0,0,0C96.8,114.1,92,125.7,92,138
	c0,12.3,4.8,23.8,13.5,32.5c8.7,8.7,20.2,13.5,32.5,13.5c12.3,0,23.8-4.8,32.5-13.5c8.7-8.7,13.5-20.2,13.5-32.5
	c0-12.3-4.8-23.8-13.5-32.5C161.8,96.8,150.3,92,138,92z M150.7,150.7c-3.4,3.4-7.9,5.3-12.7,5.3c-4.8,0-9.3-1.9-12.7-5.3
	c-3.4-3.4-5.3-7.9-5.3-12.7c0-4.8,1.9-9.3,5.3-12.7c0,0,0,0,0,0c3.4-3.4,7.9-5.3,12.7-5.3c4.8,0,9.3,1.9,12.7,5.3
	c3.4,3.4,5.3,7.9,5.3,12.7C156,142.8,154.1,147.3,150.7,150.7z"/>
</svg>
