<?xml version="1.0" encoding="utf-8"?>
<!-- Generator: Adobe Illustrator 27.6.1, SVG Export Plug-In . SVG Version: 6.00 Build 0)  -->
<svg version="1.1" id="Слой_1" xmlns="http://www.w3.org/2000/svg" xmlns:xlink="http://www.w3.org/1999/xlink" x="0px" y="0px"
	 viewBox="0 0 512 512" style="enable-background:new 0 0 512 512;" xml:space="preserve">
<style type="text/css">
	.st0{fill-rule:evenodd;clip-rule:evenodd;}
</style>
<path class="st0" d="M511.9,254c-0.5-12.2-5.6-23.8-14.2-32.4l-46.4-46.4v-65.6l-0.1-3.7c-0.9-12.2-6.5-23.7-15.5-32.1
	c-9-8.3-20.9-13-33.2-13h-65.6l-46.4-46.4l-3.1-2.9c-9.3-7.9-21.3-11.9-33.5-11.4c-12.2,0.5-23.8,5.6-32.4,14.2L175,60.7h-65.6
	l-3.7,0.1c-12.2,0.9-23.8,6.5-32.1,15.5c-8.3,9-13,20.9-13,33.2v65.6l-46.4,46.4l-2.8,3.1C3.5,233.9-0.5,245.9,0,258.1
	c0.6,12.2,5.7,23.8,14.3,32.5L60.7,337v65.6l0.1,3.7c0.9,12.2,6.5,23.7,15.5,32.1c9,8.4,20.9,13,33.2,13h65.6l46.4,46.4l3.1,2.8
	c9.3,7.9,21.3,11.9,33.5,11.4c12.2-0.5,23.8-5.6,32.4-14.2l46.4-46.4h65.6l3.6-0.1c12.2-0.9,23.7-6.5,32.1-15.5
	c8.4-9,13-20.9,13-33.2V337l46.4-46.4l2.9-3.1C508.4,278.2,512.4,266.2,511.9,254z M367.7,198L232,333.8c-2.7,2.7-6.3,4.1-9.9,4.1
	c-3.6,0-7.2-1.4-9.9-4.1l-67.9-67.9c-5.5-5.5-5.5-14.3,0-19.8s14.3-5.5,19.8,0l58,58L348,178.2c5.4-5.4,14.3-5.4,19.7,0
	C373.2,183.7,373.2,192.5,367.7,198z"/>
</svg>
