<?xml version="1.0" encoding="utf-8"?>
<!-- Generator: Adobe Illustrator 27.6.1, SVG Export Plug-In . SVG Version: 6.00 Build 0)  -->
<svg version="1.1" id="Слой_1" xmlns="http://www.w3.org/2000/svg" xmlns:xlink="http://www.w3.org/1999/xlink" x="0px" y="0px"
	 viewBox="0 0 512 512" style="enable-background:new 0 0 512 512;" xml:space="preserve">
<path d="M498,100h-50h-50V42c0-23.2-18.8-42-42-42H156c-23.2,0-42,18.8-42,42v58H64H14c-7.7,0-14,6.3-14,14s6.3,14,14,14h36v274
	c0,60.7,49.3,110,110,110h192c60.7,0,110-49.3,110-110V128h36c7.7,0,14-6.3,14-14S505.7,100,498,100z M142,42c0-7.7,6.3-14,14-14
	h200c7.7,0,14,6.3,14,14v58H142V42z M434,402c0,45.2-36.8,82-82,82H160c-45.2,0-82-36.8-82-82V128h50h256h50V402z M222,242v128
	c0,7.7-6.3,14-14,14s-14-6.3-14-14V242c0-7.7,6.3-14,14-14S222,234.3,222,242z M318,242v128c0,7.7-6.3,14-14,14s-14-6.3-14-14V242
	c0-7.7,6.3-14,14-14S318,234.3,318,242z"/>
</svg>
