<?xml version="1.0" encoding="utf-8"?>
<!-- Generator: Adobe Illustrator 27.6.1, SVG Export Plug-In . SVG Version: 6.00 Build 0)  -->
<svg version="1.1" id="Слой_1" xmlns="http://www.w3.org/2000/svg" xmlns:xlink="http://www.w3.org/1999/xlink" x="0px" y="0px"
	 viewBox="0 0 512 512" style="enable-background:new 0 0 512 512;" xml:space="preserve">
<path d="M301.2,32.5c-29.6-6-60.9-6-90.5,0c-44,8.8-84.1,30.4-116,62.3s-53.4,72-62.3,116c-1.5,7.6-8.9,12.5-16.5,11
	c-7.6-1.5-12.5-8.9-11-16.5C15,155.8,39.2,110.8,75,75C110.8,39.2,155.8,15,205.2,5c33.2-6.7,68.3-6.7,101.5,0
	C356.2,15,401.2,39.2,437,75c35.8,35.8,60,80.9,69.9,130.3c1.5,7.6-3.4,15-11,16.5c-0.9,0.2-1.9,0.3-2.8,0.3
	c-6.5,0-12.4-4.6-13.7-11.2c-8.8-44-30.4-84.1-62.3-116C385.3,62.9,345.2,41.3,301.2,32.5z M210.8,479.5c-44-8.8-84.1-30.4-116-62.3
	c-31.9-31.9-53.4-72-62.3-116c-1.5-7.6-8.9-12.5-16.5-11c-7.6,1.5-12.5,8.9-11,16.5C15,356.2,39.2,401.2,75,437
	c35.8,35.8,80.9,60,130.3,69.9c0.9,0.2,1.9,0.3,2.8,0.3c6.5,0,12.4-4.6,13.7-11.2C223.2,488.4,218.3,481,210.8,479.5z M496,290.3
	c-7.6-1.5-15,3.4-16.5,11c-8.8,44-30.4,84.1-62.3,116c-31.9,31.9-72,53.4-116,62.3c-7.6,1.5-12.5,8.9-11,16.5
	c1.3,6.6,7.2,11.2,13.7,11.2c0.9,0,1.8-0.1,2.8-0.3c49.4-9.9,94.4-34.1,130.3-69.9c35.8-35.8,60-80.9,69.9-130.3
	C508.5,299.2,503.6,291.8,496,290.3z"/>
</svg>
