<?xml version="1.0" encoding="utf-8"?>
<!-- Generator: Adobe Illustrator 27.6.1, SVG Export Plug-In . SVG Version: 6.00 Build 0)  -->
<svg version="1.1" id="Слой_1" xmlns="http://www.w3.org/2000/svg" xmlns:xlink="http://www.w3.org/1999/xlink" x="0px" y="0px"
	 viewBox="0 0 512 512" style="enable-background:new 0 0 512 512;" xml:space="preserve">
<path d="M256,252c-69.5,0-126-56.5-126-126S186.5,0,256,0s126,56.5,126,126S325.5,252,256,252z M256,28c-54,0-98,44-98,98
	s44,98,98,98c54,0,98-44,98-98S310,28,256,28z M512,498c0-88.3-34.3-149.1-101.9-180.7C355.8,292,293.3,292,256,292
	s-99.8,0-154.1,25.3C34.3,348.9,0,409.7,0,498c0,7.7,6.3,14,14,14s14-6.3,14-14c0-41.9,8.6-76.7,25.5-103.5
	c14-22.2,34.3-39.7,60.3-51.8C162.4,320,221,320,256,320c35,0,93.6,0,142.2,22.7c26,12.1,46.3,29.5,60.3,51.8
	C475.4,421.3,484,456.1,484,498c0,7.7,6.3,14,14,14S512,505.7,512,498z"/>
</svg>
