<?xml version="1.0" encoding="utf-8"?>
<!-- Generator: Adobe Illustrator 27.6.1, SVG Export Plug-In . SVG Version: 6.00 Build 0)  -->
<svg version="1.1" id="Слой_1" xmlns="http://www.w3.org/2000/svg" xmlns:xlink="http://www.w3.org/1999/xlink" x="0px" y="0px"
	 viewBox="0 0 512 512" style="enable-background:new 0 0 512 512;" xml:space="preserve">
<path d="M402,100h-4V42c0-13.6-6.6-26.3-17.6-34.2c-11-7.9-25.3-9.9-38.1-5.5c-0.2,0.1-0.3,0.1-0.5,0.2L73.6,106.2
	c-2.2,0.8-4.4,1.6-6.5,2.5l-0.4,0.1c-0.5,0.2-0.9,0.4-1.4,0.6C26.9,126.6,0,165.2,0,210v192c0,60.7,49.3,110,110,110h292
	c60.7,0,110-49.3,110-110V210C512,149.3,462.7,100,402,100z M351.6,28.7c4.3-1.4,8.8-0.7,12.5,1.9c3.7,2.7,5.9,6.8,5.9,11.4v58
	H167.3L351.6,28.7z M484,402c0,45.2-36.8,82-82,82H110c-45.2,0-82-36.8-82-82V210c0-33.8,20.6-62.9,49.8-75.4l5.1-2
	c8.5-3,17.6-4.6,27.1-4.6h292c45.2,0,82,36.8,82,82V402z M402,260c-25.4,0-46,20.6-46,46s20.6,46,46,46s46-20.6,46-46
	S427.4,260,402,260z M402,324c-9.9,0-18-8.1-18-18s8.1-18,18-18s18,8.1,18,18S411.9,324,402,324z"/>
</svg>
