<?xml version="1.0" encoding="UTF-8"?>
<svg id="_Слой_1" data-name="Слой 1" xmlns="http://www.w3.org/2000/svg" viewBox="0 0 512 512">
  <path d="m256,349c-3.71,0-7.27-1.47-9.9-4.1l-86-86c-5.47-5.47-5.47-14.33,0-19.8,5.47-5.47,14.33-5.47,19.8,0l76.1,76.1,76.1-76.1c5.47-5.47,14.33-5.47,19.8,0,5.47,5.47,5.47,14.33,0,19.8l-86,86c-2.63,2.63-6.19,4.1-9.9,4.1Zm9.9-76.1l86-86c5.47-5.47,5.47-14.33,0-19.8-5.47-5.47-14.33-5.47-19.8,0l-76.1,76.1-76.1-76.1c-5.47-5.47-14.33-5.47-19.8,0-5.47,5.47-5.47,14.33,0,19.8l86,86c2.63,2.63,6.19,4.1,9.9,4.1s7.27-1.47,9.9-4.1Z"/>
</svg>